  <svg xmlns="http://www.w3.org/2000/svg" width="391.8" height="53.94" viewBox="0 0 391.8 60">
  <defs>


<style type="text/css"><![CDATA[
      
      .ld-1 {
        fill: #ff7bac;
      }
      .ld-2 {
        fill: #3fa9f5;
      }



  #blue-bar {
    animation: loading-troller 1s infinite;
  }

  #loading-caption {
    animation: loading-troller2 0.1s infinite;
  }

@keyframes loading-troller {

0% {
opacity:0.5;
transform: skewX(-45deg) translate3D(5vw,0,0);
}

100% {
opacity:0.59;
transform: skewX(-45deg) translate3D(95vw,0,0);
}

}

    ]]></style>

  </defs>
  <title>loading placeholder</title>
  <g id="loading-caption" data-name="Layer 1">
    <g>
      <path class="ld-1" d="M36.47,40.79H32.55q-3.75,0-5.07-1.38T26.21,34V17.69H7.72V40.85H.4v-29H7.72v4.55a6.54,6.54,0,0,1,6.57-4.55H25q8.64,0,8.64,8.87V34.92h2.82Z"/>
      <path class="ld-1" d="M73.11,32.78q0,8-8.41,8H46.9a5.86,5.86,0,0,1-4.49-2,8.21,8.21,0,0,1-2.19-6V18.9A7.23,7.23,0,0,1,42,13.66a6.28,6.28,0,0,1,4.72-1.84H65.34q7.78,0,7.78,7.09ZM65.74,35V17.69H47.53V35Z"/>
      <path class="ld-1" d="M121,11.81l-7.37,29H103.54l-2.48-12.73a83.49,83.49,0,0,1-1-8.7H96.45a84,84,0,0,1-1,8.7L93,40.79H82.91l-7.37-29h6.86L85,23.68q.63,2.77,1.44,8.93h4q.63-6.86,1-8.93L93.8,11.81h9L105,23.68q.4,2.07,1,8.93h4q.81-6.16,1.38-8.93l2.65-11.87Z"/>
      <path class="ld-1" d="M151.82,40.79h-8.35V.63h8.35Z"/>
      <path class="ld-1" d="M189.1,32.78q0,8-8.41,8h-17.8a5.86,5.86,0,0,1-4.49-2,8.21,8.21,0,0,1-2.19-6V18.9A7.23,7.23,0,0,1,158,13.66a6.28,6.28,0,0,1,4.72-1.84h18.61q7.78,0,7.78,7.09ZM181.72,35V17.69H163.52V35Z"/>
      <path class="ld-1" d="M227.76,40.79h-5.65q-4.67,0-5.7-3.69-1.44,3.69-5.76,3.69H199q-7.2,0-7.2-7.55V19.47q0-7.66,7.2-7.66h12q4.55,0,5.93,4v-4h8.3V35.32h2.48ZM217,35V17.69H199.3V35Z"/>
      <path class="ld-1" d="M265.79,40.79h-5.65q-4.67,0-5.76-3.69-1.38,3.69-5.7,3.69H237q-7.2,0-7.2-7.55V20.63q0-7.61,7.2-7.61h12q4.61,0,6,4V.63h8.3V34.34h2.48ZM255,35V18.84H237.32V35Z"/>
      <path class="ld-1" d="M279.1,5.13h-8.35V0h8.35Zm0,35.67h-8.35V12.85h8.35Z"/>
      <path class="ld-1" d="M320.7,40.79h-3.92q-3.75,0-5.07-1.38T310.44,34V17.69h-18.5V40.85h-7.32v-29h7.32v4.55a6.54,6.54,0,0,1,6.57-4.55h10.72q8.64,0,8.64,8.87V34.92h2.82Z"/>
      <path class="ld-1" d="M357.11,40.45q0,5.65-1.84,7.66t-7,2H337.23V45.52h12.33v-9l-1.5-.29q-1.27,3.57-4.55,3.57H331.64q-7.2,0-7.2-7.61V19.47q0-7.66,7.2-7.66h12q4.55,0,5.93,4v-4h7.49Zm-7.49-6.63V17.69H331.87V33.82Z"/>
      <path class="ld-1" d="M359.82,33.71h8.47v8.53h-8.47Z"/>
      <path class="ld-1" d="M371.57,33.71H380v8.53h-8.47Z"/>
      <path class="ld-1" d="M383.33,33.71h8.47v8.53h-8.47Z"/>
    </g>
  </g>
  <g id="blue-bar" data-name="Layer 2">
    <rect class="ld-2" y="55" width="80" height="5"/>
  </g>
</svg>