  <svg id="Layer_1" data-name="Layer 1" xmlns="http://www.w3.org/2000/svg" xmlns:xlink="http://www.w3.org/1999/xlink" viewBox="0 0 1411.62 369.73">
    <defs>

      <mask id="mask">
		<circle r="10" cx="100" cy="100"
					 class="c-mask-circle"/>
	     </mask>
        <clipPath id="clip-path" transform="translate(-8.61)">
        <path class="cls-1" d="M0,114.87v260H1432v-260Zm747,187a40,40,0,1,1,40-40A40,40,0,0,1,747,301.87Z"/>
        </clipPath>

<style type="text/css"><![CDATA[
      
.cls-1 {
        fill: none;
      }

      .cls-2 {
        clip-path: url(#clip-path);
      }

      .cls-3 {
        fill: #fb68aa;
      }

      .cls-4 {
        fill: #6fdaff;
      }

      .cls-off {
        fill:grey;  
      }

      .cls-alpha {
        fill:grey;
      }


    ]]></style>

    </defs>
    <title>MAIN COLORED TITLE</title>
    <g class="cls-2">
        <g>
        <polygon class="cls-3" points="1068.92 134.79 1068.92 167.38 1030.59 167.38 1030.59 180.42 979.49 180.42 979.49 167.38 837.18 167.38 837.18 180.42 786.43 180.42 786.43 167.38 744.91 167.38 744.91 134.79 786.43 134.79 786.43 123.93 837.18 123.93 837.18 134.79 979.49 134.79 979.49 122.84 1030.59 122.84 1030.59 134.79 1068.92 134.79"/>
        <path class="cls-3" d="M762.39,188.27v180.6H863.18q34.07,0,34.07-24.27V188.27ZM850.4,324q0,7.38-11.36,7.38H809.24V292.3H850.4Zm0-63H809.24V225.22H850.4Z" transform="translate(-8.61)"/>
        <path class="cls-3" d="M983.48,188.29H917.12V332.75q0,8.23-10.29,8.23H901.5v27.88h15.61q49.32,0,49.33-37.44V319.74h51.46v13q0,5.32-11.36,5.31H993.77V367.8h29.81q44,0,44-26.82V188.29Zm34.42,103.19H966.45V271.93h51.46Zm0-51.33H966.45V220.88h51.46Z" transform="translate(-8.61)"/>
        <path class="cls-3" d="M1420.23,367.79h-104q-26.27,0-36.91-6.52-11.71-7.88-12.07-28l-.36-30.14q0-12.76-11.36-12.76-6,0-18.45,10.59l-60.68,47.52q-14.91,11.41-22,13.85-12.07,4.07-38.68,4.07h-18.1V329.78h15.61a52.76,52.76,0,0,0,22-4.34q7.09-3.26,20.23-13l120-91.52H1113.26V184.76h249.48v32.32q-14.2,6.25-67.78,40.73,15.61,1.9,20.58,9.5,2.84,4.89,2.84,16v35.3q0,8.69,7.45,10.86,4.61,1.36,20.58,1.36h73.82Z" transform="translate(-8.61)"/>
        <rect class="cls-3" x="1126.3" y="122.87" width="214.35" height="38.54"/>
        </g>
        <g>
        
        <path class="cls-4" d="M314.27,369.24h-33.2q-31.75,0-43-11.72-10.75-11.72-10.74-45.9V173.44H70.62V369.73h-62V123.63h62v38.57q15.13-38.57,55.66-38.57H217.1q73.24,0,73.24,75.2V319.43h23.93Z" transform="translate(-8.61)"/>
        <path class="cls-4" d="M628.24,260.84H416.81V320.9l211.19,0-55.92,48.37H404.6q-31.25,0-45.41-14.16Q346,340.92,346,309.67v-123q0-63,64-63H581.85q23.92,0,34.67,13.18,11.72,14.65,11.72,49.8ZM574,233V173.44H416.81V233Z" transform="translate(-8.61)"/>
        <path class="cls-4" d="M731.75,368.89H661V122.6h70.8Z" transform="translate(-8.61)"/>
        </g>
    </g>
    <circle id="Center_Circle" data-name="Center Circle" class="cls-3" cx="738.39" cy="261.87" r="30"/>
    </svg>