<svg id="Layer_2" data-name="Layer 2" xmlns="http://www.w3.org/2000/svg" viewBox="0 0 771 1073"><title>NEI MOE LOGO PATTERN</title><rect x="548.66" y="335.77" width="31.45" height="11.91" transform="translate(-76.34 499.17) rotate(-45)" style="fill:none"/><rect x="170.86" y="273.41" width="10.29" height="3.86" transform="translate(-143.15 205.1) rotate(-45)" style="fill:none"/><path d="M627.18,304.13,621.36,310l5.53,5.53,4.21-4.22c1.07-1.07,1.26-1.95.57-2.65Z" style="fill:none"/><path d="M569.44,525.77c1.07-1.07,1.26-1.95.56-2.65l-4.49-4.48-5.82,5.82,5.53,5.53Z" style="fill:none"/><rect x="551.54" y="511.01" width="8.23" height="7.17" transform="translate(-201.13 543.63) rotate(-45)" style="fill:none"/><rect x="240.33" y="335.77" width="31.45" height="11.91" transform="translate(-166.64 281.15) rotate(-45)" style="fill:none"/><rect x="325.02" y="273.41" width="10.29" height="3.86" transform="translate(-97.99 314.11) rotate(-45)" style="fill:none"/><rect x="332.26" y="280.62" width="10.29" height="3.91" transform="translate(-100.99 321.35) rotate(-45)" style="fill:none"/><rect x="571.68" y="487.92" width="10.29" height="3.86" transform="translate(-177.43 551.35) rotate(-45)" style="fill:none"/><rect x="486.42" y="280.62" width="10.29" height="3.91" transform="translate(-55.84 430.36) rotate(-45)" style="fill:none"/><rect x="394.49" y="335.77" width="31.45" height="11.91" transform="translate(-121.49 390.16) rotate(-45)" style="fill:none"/><rect x="479.18" y="273.41" width="10.29" height="3.86" transform="translate(-52.84 423.12) rotate(-45)" style="fill:none"/><rect x="613.2" y="296.5" width="8.23" height="7.17" transform="translate(-31.39 524.4) rotate(-45)" style="fill:none"/><rect x="695.01" y="58.91" width="10.29" height="3.86" transform="translate(162.05 512.89) rotate(-45)" style="fill:none"/><rect x="702.25" y="66.12" width="10.29" height="3.91" transform="translate(159.06 520.15) rotate(-45)" style="fill:none"/><rect x="459.04" y="296.5" width="8.23" height="7.17" transform="translate(-76.54 415.39) rotate(-45)" style="fill:none"/><rect x="578.92" y="495.13" width="10.29" height="3.91" transform="translate(-180.42 558.59) rotate(-45)" style="fill:none"/><path d="M472.72,315.48l4.22-4.22c1.07-1.07,1.26-1.95.56-2.65L473,304.13,467.19,310Z" style="fill:none"/><rect x="702.82" y="335.77" width="31.45" height="11.91" transform="translate(-31.19 608.18) rotate(-45)" style="fill:none"/><rect x="424.76" y="495.13" width="10.29" height="3.91" transform="translate(-225.58 449.58) rotate(-45)" style="fill:none"/><rect x="610.32" y="121.27" width="31.45" height="11.91" transform="translate(93.4 479.95) rotate(-45)" style="fill:none"/><path d="M415.27,525.77c1.08-1.07,1.26-1.95.57-2.65l-4.49-4.48-5.82,5.82,5.53,5.53Z" style="fill:none"/><rect x="417.52" y="487.92" width="10.29" height="3.86" transform="translate(-222.58 442.34) rotate(-45)" style="fill:none"/><rect x="397.37" y="511.01" width="8.23" height="7.17" transform="translate(-246.28 434.62) rotate(-45)" style="fill:none"/><rect x="271.16" y="764.79" width="31.45" height="11.91" transform="translate(-460.97 428.61) rotate(-45)" style="fill:none"/><path d="M719.68,518.64l-5.82,5.82,5.53,5.53,4.21-4.22c1.07-1.07,1.26-1.95.56-2.65Z" style="fill:none"/><rect x="24.5" y="550.28" width="31.45" height="11.91" transform="translate(-381.54 191.36) rotate(-45)" style="fill:none"/><rect x="178.1" y="280.62" width="10.29" height="3.91" transform="translate(-146.14 212.34) rotate(-45)" style="fill:none"/><rect x="640.59" y="280.62" width="10.29" height="3.91" transform="translate(-10.68 539.37) rotate(-45)" style="fill:none"/><path d="M661.94,740.28c1.07-1.07,1.25-2,.56-2.65L658,733.14,652.19,739l5.53,5.53Z" style="fill:none"/><rect x="633.35" y="273.41" width="10.29" height="3.86" transform="translate(-7.69 532.12) rotate(-45)" style="fill:none"/><rect x="705.7" y="511.01" width="8.23" height="7.17" transform="translate(-155.97 652.64) rotate(-45)" style="fill:none"/><rect x="540.85" y="58.91" width="10.29" height="3.86" transform="translate(116.91 403.9) rotate(-45)" style="fill:none"/><rect x="393.92" y="66.12" width="10.29" height="3.91" transform="translate(68.75 302.12) rotate(-45)" style="fill:none"/><rect x="674.87" y="82" width="8.23" height="7.17" transform="translate(138.35 505.18) rotate(-45)" style="fill:none"/><path d="M688.84,89.62,683,95.44l5.53,5.53,4.22-4.21c1.07-1.07,1.26-2,.56-2.65Z" style="fill:none"/><rect x="548.09" y="66.12" width="10.29" height="3.91" transform="translate(113.9 411.13) rotate(-45)" style="fill:none"/><rect x="644.03" y="725.52" width="8.23" height="7.17" transform="translate(-325.71 671.86) rotate(-45)" style="fill:none"/><rect x="725.84" y="487.92" width="10.29" height="3.86" transform="translate(-132.27 660.36) rotate(-45)" style="fill:none"/><path d="M199.45,740.28c1.07-1.07,1.25-2,.56-2.65l-4.49-4.49L189.7,739l5.53,5.53Z" style="fill:none"/><rect x="181.54" y="725.52" width="8.23" height="7.17" transform="translate(-461.17 344.83) rotate(-45)" style="fill:none"/><rect x="117" y="764.79" width="31.45" height="11.91" transform="translate(-506.13 319.6) rotate(-45)" style="fill:none"/><rect x="579.49" y="764.79" width="31.45" height="11.91" transform="translate(-370.67 646.63) rotate(-45)" style="fill:none"/><rect x="86.17" y="335.77" width="31.45" height="11.91" transform="translate(-211.8 172.14) rotate(-45)" style="fill:none"/><path d="M507.77,740.28c1.07-1.07,1.26-2,.56-2.65l-4.48-4.49L498,739l5.53,5.53Z" style="fill:none"/><rect x="489.87" y="725.52" width="8.23" height="7.17" transform="translate(-370.87 562.85) rotate(-45)" style="fill:none"/><path d="M353.61,740.28c1.07-1.07,1.26-2,.56-2.65l-4.48-4.49L343.86,739l5.53,5.53Z" style="fill:none"/><rect x="425.33" y="764.79" width="31.45" height="11.91" transform="translate(-415.82 537.62) rotate(-45)" style="fill:none"/><rect x="386.69" y="58.91" width="10.29" height="3.86" transform="translate(71.75 294.88) rotate(-45)" style="fill:none"/><rect x="335.71" y="725.52" width="8.23" height="7.17" transform="translate(-416.02 453.84) rotate(-45)" style="fill:none"/><rect x="47.53" y="702.43" width="10.29" height="3.86" transform="translate(-482.63 243.55) rotate(-45)" style="fill:none"/><rect x="208.93" y="709.64" width="10.29" height="3.91" transform="translate(-440.47 359.79) rotate(-45)" style="fill:none"/><rect x="147.83" y="121.27" width="31.45" height="11.91" transform="translate(-42.06 152.91) rotate(-45)" style="fill:none"/><path d="M226.06,101l4.22-4.21c1.07-1.07,1.26-2,.56-2.65l-4.49-4.49-5.82,5.82Z" style="fill:none"/><rect x="212.38" y="82" width="8.23" height="7.17" transform="translate(2.89 178.15) rotate(-45)" style="fill:none"/><rect x="201.69" y="702.43" width="10.29" height="3.86" transform="translate(-437.47 352.56) rotate(-45)" style="fill:none"/><rect x="54.77" y="709.64" width="10.29" height="3.91" transform="translate(-485.62 250.78) rotate(-45)" style="fill:none"/><rect x="302" y="121.27" width="31.45" height="11.91" transform="translate(3.1 261.93) rotate(-45)" style="fill:none"/><rect x="23.93" y="280.62" width="10.29" height="3.91" transform="translate(-191.3 103.33) rotate(-45)" style="fill:none"/><rect x="16.69" y="273.41" width="10.29" height="3.86" transform="translate(-188.3 96.09) rotate(-45)" style="fill:none"/><rect x="58.21" y="82" width="8.23" height="7.17" transform="translate(-42.26 69.14) rotate(-45)" style="fill:none"/><path d="M71.9,101l4.22-4.21c1.07-1.07,1.25-2,.56-2.65l-4.49-4.49-5.82,5.82Z" style="fill:none"/><rect x="363.09" y="709.64" width="10.29" height="3.91" transform="translate(-395.32 468.8) rotate(-45)" style="fill:none"/><rect x="456.16" y="121.27" width="31.45" height="11.91" transform="translate(48.25 370.93) rotate(-45)" style="fill:none"/><rect x="366.54" y="82" width="8.23" height="7.17" transform="translate(48.05 287.16) rotate(-45)" style="fill:none"/><rect x="664.18" y="702.43" width="10.29" height="3.86" transform="translate(-302.01 679.59) rotate(-45)" style="fill:none"/><path d="M534.39,101l4.22-4.21c1.07-1.07,1.25-2,.56-2.65l-4.49-4.49-5.82,5.82Z" style="fill:none"/><rect x="520.7" y="82" width="8.23" height="7.17" transform="translate(93.2 396.17) rotate(-45)" style="fill:none"/><rect x="510.02" y="702.43" width="10.29" height="3.86" transform="translate(-347.17 570.58) rotate(-45)" style="fill:none"/><rect x="671.42" y="709.64" width="10.29" height="3.91" transform="translate(-305.01 686.84) rotate(-45)" style="fill:none"/><path d="M380.23,101l4.21-4.21c1.07-1.07,1.26-2,.56-2.65l-4.48-4.49-5.82,5.82Z" style="fill:none"/><rect x="355.85" y="702.43" width="10.29" height="3.86" transform="translate(-392.32 461.57) rotate(-45)" style="fill:none"/><rect x="517.26" y="709.64" width="10.29" height="3.91" transform="translate(-350.17 577.82) rotate(-45)" style="fill:none"/><rect x="27.38" y="725.52" width="8.23" height="7.17" transform="translate(-506.33 235.82) rotate(-45)" style="fill:none"/><rect x="270.59" y="495.13" width="10.29" height="3.91" transform="translate(-270.73 340.57) rotate(-45)" style="fill:none"/><rect x="304.87" y="296.5" width="8.23" height="7.17" transform="translate(-121.69 306.39) rotate(-45)" style="fill:none"/><rect x="609.75" y="924.15" width="10.29" height="3.91" transform="translate(-474.75 706.04) rotate(-45)" style="fill:none"/><path d="M318.56,315.48l4.22-4.22c1.07-1.07,1.25-1.95.56-2.65l-4.49-4.48L313,310Z" style="fill:none"/><rect x="602.51" y="916.93" width="10.29" height="3.86" transform="translate(-471.75 698.81) rotate(-45)" style="fill:none"/><rect x="448.35" y="916.93" width="10.29" height="3.86" transform="translate(-516.91 589.79) rotate(-45)" style="fill:none"/><rect x="178.67" y="550.28" width="31.45" height="11.91" transform="translate(-336.39 300.37) rotate(-45)" style="fill:none"/><rect x="263.35" y="487.92" width="10.29" height="3.86" transform="translate(-267.73 333.34) rotate(-45)" style="fill:none"/><rect x="332.83" y="550.28" width="31.45" height="11.91" transform="translate(-291.23 409.38) rotate(-45)" style="fill:none"/><path d="M261.11,525.77c1.07-1.07,1.26-1.95.56-2.65l-4.48-4.48-5.82,5.82L256.9,530Z" style="fill:none"/><rect x="243.21" y="511.01" width="8.23" height="7.17" transform="translate(-291.43 325.61) rotate(-45)" style="fill:none"/><rect x="733.08" y="495.13" width="10.29" height="3.91" transform="translate(-135.27 667.61) rotate(-45)" style="fill:none"/><rect x="109.19" y="487.92" width="10.29" height="3.86" transform="translate(-312.89 224.32) rotate(-45)" style="fill:none"/><path d="M164.4,315.48l4.21-4.22c1.07-1.07,1.26-1.95.57-2.65l-4.49-4.48L158.87,310Z" style="fill:none"/><path d="M102.73,530l4.22-4.22c1.07-1.07,1.26-1.95.56-2.65L103,518.64l-5.82,5.82Z" style="fill:none"/><rect x="140.02" y="916.93" width="10.29" height="3.86" transform="translate(-607.21 371.78) rotate(-45)" style="fill:none"/><rect x="301.43" y="924.15" width="10.29" height="3.91" transform="translate(-565.05 488.02) rotate(-45)" style="fill:none"/><rect x="641.16" y="550.28" width="31.45" height="11.91" transform="translate(-200.93 627.4) rotate(-45)" style="fill:none"/><rect x="147.26" y="924.15" width="10.29" height="3.91" transform="translate(-610.21 379.01) rotate(-45)" style="fill:none"/><rect x="294.19" y="916.93" width="10.29" height="3.86" transform="translate(-562.06 480.79) rotate(-45)" style="fill:none"/><rect x="455.59" y="924.15" width="10.29" height="3.91" transform="translate(-519.91 597.04) rotate(-45)" style="fill:none"/><rect x="150.71" y="296.5" width="8.23" height="7.17" transform="translate(-166.85 197.37) rotate(-45)" style="fill:none"/><rect x="116.43" y="495.13" width="10.29" height="3.91" transform="translate(-315.88 231.56) rotate(-45)" style="fill:none"/><path d="M41.07,744.49l4.21-4.21c1.07-1.07,1.26-2,.57-2.65l-4.49-4.49L35.54,739Z" style="fill:none"/><rect x="89.05" y="511.01" width="8.23" height="7.17" transform="translate(-336.59 216.6) rotate(-45)" style="fill:none"/><rect x="486.99" y="550.28" width="31.45" height="11.91" transform="translate(-246.08 518.39) rotate(-45)" style="fill:none"/><rect x="239.76" y="66.12" width="10.29" height="3.91" transform="translate(23.6 193.11) rotate(-45)" style="fill:none"/><rect x="85.6" y="66.12" width="10.29" height="3.91" transform="translate(-21.56 84.1) rotate(-45)" style="fill:none"/><rect x="733.65" y="764.79" width="31.45" height="11.91" transform="translate(-325.51 755.64) rotate(-45)" style="fill:none"/><rect x="78.36" y="58.91" width="10.29" height="3.86" transform="translate(-18.56 76.87) rotate(-45)" style="fill:none"/><rect x="209.5" y="979.3" width="31.45" height="11.91" transform="translate(-630.71 447.83) rotate(-45)" style="fill:none"/><path d="M288,947.65l-5.82,5.82,5.53,5.53,4.21-4.21c1.07-1.08,1.26-2,.57-2.65Z" style="fill:none"/><rect x="274.04" y="940.02" width="8.23" height="7.17" transform="translate(-585.76 473.07) rotate(-45)" style="fill:none"/><rect x="582.37" y="940.02" width="8.23" height="7.17" transform="translate(-495.45 691.08) rotate(-45)" style="fill:none"/><path d="M750.51,947.65l-5.82,5.82,5.53,5.53,4.21-4.21c1.07-1.08,1.26-2,.57-2.65Z" style="fill:none"/><rect x="671.99" y="979.3" width="31.45" height="11.91" transform="translate(-495.25 774.86) rotate(-45)" style="fill:none"/><rect x="363.66" y="979.3" width="31.45" height="11.91" transform="translate(-585.56 556.84) rotate(-45)" style="fill:none"/><rect x="736.53" y="940.02" width="8.23" height="7.17" transform="translate(-450.3 800.11) rotate(-45)" style="fill:none"/><path d="M596.35,947.65l-5.83,5.82,5.54,5.53,4.21-4.21c1.07-1.08,1.26-2,.56-2.65Z" style="fill:none"/><rect x="756.68" y="916.93" width="10.29" height="3.86" transform="translate(-426.6 807.83) rotate(-45)" style="fill:none"/><rect x="232.52" y="58.91" width="10.29" height="3.86" transform="translate(26.6 185.87) rotate(-45)" style="fill:none"/><path d="M442.18,947.65l-5.82,5.82,5.53,5.53,4.22-4.21c1.07-1.08,1.26-2,.56-2.65Z" style="fill:none"/><rect x="428.2" y="940.02" width="8.23" height="7.17" transform="translate(-540.61 582.07) rotate(-45)" style="fill:none"/><rect x="119.88" y="940.02" width="8.23" height="7.17" transform="translate(-630.91 364.05) rotate(-45)" style="fill:none"/><path d="M14.45,311.26c1.07-1.07,1.26-1.95.56-2.65l-4.48-4.48L4.7,310l5.53,5.53Z" style="fill:none"/><rect x="517.83" y="979.3" width="31.45" height="11.91" transform="translate(-540.41 665.85) rotate(-45)" style="fill:none"/><rect x="55.34" y="979.3" width="31.45" height="11.91" transform="translate(-675.87 338.82) rotate(-45)" style="fill:none"/><path d="M133.86,947.65,128,953.47l5.53,5.53,4.21-4.21c1.07-1.08,1.26-2,.56-2.65Z" style="fill:none"/><polygon points="730.08 1073 740.78 1073 735.43 1067.65 730.08 1073" style="fill:#3b3b3b"/><polygon points="575.91 1073 586.62 1073 581.27 1067.65 575.91 1073" style="fill:#3b3b3b"/><polygon points="421.75 1073 432.46 1073 427.11 1067.65 421.75 1073" style="fill:#3b3b3b"/><polygon points="267.59 1073 278.3 1073 272.94 1067.65 267.59 1073" style="fill:#3b3b3b"/><polygon points="113.42 1073 124.13 1073 118.78 1067.65 113.42 1073" style="fill:#3b3b3b"/><polygon points="761.77 1042.84 771 1052.07 771 1034.53 770.54 1034.07 761.77 1042.84" style="fill:#3b3b3b"/><polygon points="760.36 893.25 754.93 898.67 753.25 896.98 746.02 904.21 747.71 905.9 727.58 926.03 726.05 924.49 718.87 931.67 720.41 933.2 714.53 939.08 719.14 943.68 725.01 937.81 726.86 939.66 734.03 932.48 732.19 930.63 752.32 910.51 754.16 912.35 761.39 905.13 759.54 903.28 764.96 897.86 760.36 893.25" style="fill:#3b3b3b"/><path d="M754.62,914.12l-9.38,9.38,20.43,20.43c.77.78.67,1.65-.3,2.62l-.75.76,4,3.94,2.2-2.21.23-.24V935.32l-.2-.2.2-.2v-8l-4.19,4.19L764,928.36l7-7V906.71l-4.48-4.48Zm4.93,9.74-2.73-2.72,7.28-7.28,2.72,2.73Z" style="fill:#3b3b3b"/><polygon points="771 887.67 771 879.24 766.78 883.45 771 887.67" style="fill:#3b3b3b"/><path d="M675.14,1030.69l-17-17.06q-10.64-10.62-21-.27l-12.84,12.84q-5.73,5.73-2.42,13.33l-5.45-5.46-8.77,8.77L637.77,1073h9.29l4.12-4.12-27.76-27.76L645.59,1019l19.54,19.54q4.83,4.85,8,5t7.73-4.41l4.7-4.7-7-7Z" style="fill:#3b3b3b"/><path d="M684.74,1004.52l29.9-29.9-10.49-10.5q-5-5-8.7-5.38-3.39-.35-6.77,3l-24.31,24.31q-9,9-.14,18l17.4,17.4q4.43,4.41,8.29,4.55c2.67,0,5.48-1.47,8.43-4.41L722,997.89l1.07-14.75L693.24,1013Zm-3.93-3.94-8.43-8.42,22.24-22.24,8.42,8.43Z" style="fill:#3b3b3b"/><path d="M764.53,948.42l-22.11-22.11-19.07,19.07,5.19,5.19A8,8,0,0,1,739,961l9.91,9.91,14.25-14.25Q768,951.86,764.53,948.42ZM735.2,944l5.82-5.82,5.07,5.07-5.82,5.82Zm19.23,10.81L750.22,959l-5.53-5.53,5.82-5.82,4.49,4.49C755.69,952.83,755.5,953.71,754.43,954.79Z" style="fill:#3b3b3b"/><path d="M725.93,963.63a8,8,0,0,1-1.73-8.74l-14.47-14.46-10,10,34.83,34.83,10-10-9.9-9.91A8,8,0,0,1,725.93,963.63Z" style="fill:#3b3b3b"/><path d="M735.83,962.21a6,6,0,1,0-8.49,0A6,6,0,0,0,735.83,962.21Z" style="fill:#3b3b3b"/><polygon points="698.55 930.3 694.71 923.19 691.41 930.56 683.46 932.02 689.45 937.44 688.38 945.44 695.39 941.42 702.67 944.91 701.01 937.01 706.58 931.16 698.55 930.3" style="fill:#3b3b3b"/><polygon points="600 912.35 607.22 905.13 605.38 903.28 610.8 897.86 606.19 893.25 600.77 898.67 599.08 896.98 591.86 904.21 593.54 905.9 573.42 926.03 571.88 924.49 564.71 931.67 566.24 933.2 560.37 939.08 564.98 943.68 570.85 937.81 572.69 939.66 579.87 932.48 578.03 930.63 598.15 910.51 600 912.35" style="fill:#3b3b3b"/><path d="M623.09,933.84l4.21,4.21,4.22-4.21q6.21-6.23,2.43-10l-21.6-21.59-11.89,11.89-9.39,9.38,20.43,20.43c.78.78.68,1.65-.29,2.62l-.75.76,3.94,3.94,2.21-2.21q7-7,1.68-12.27l-1.65-1.65,7.28-7.28,1.84,1.84c.5.5.21,1.29-.86,2.36Zm-20.43-12.7,7.27-7.28,2.73,2.73-7.28,7.27Zm10,10-2.76-2.76,7.28-7.28,2.76,2.77Z" style="fill:#3b3b3b"/><path d="M641.32,912.05a10.78,10.78,0,0,1-2.5,3.73l-2.21,2.2,5.19,5.19,2.56-2.56a26.57,26.57,0,0,0,4.89-6.05,18.87,18.87,0,0,0,1.15-5.07l1.86-15.3c.18-2.17.55-3.54,1.12-4.11,1.07-1.07,2.2-1,3.41.2l4.31,4.21c1.93,1.87,3.82,2.61,5.66,2.25q2.43-.59,6.14-4.3l14.71-14.7-5.22-5.22L672,883a18.35,18.35,0,0,1-3.11,2.71,2,2,0,0,1-2.59-.48l-5-5a6.65,6.65,0,0,0-2.67-1.86q-1.77-.37-4.25,1.56,2.7-12.45,3.82-15.34L653.59,860l-35.28,35.28,5.11,5.11,22.94-22.94-4,29.91A25.19,25.19,0,0,1,641.32,912.05Z" style="fill:#3b3b3b"/><rect x="609.07" y="867.17" width="42.87" height="7.71" transform="translate(-431.23 700.94) rotate(-45)" style="fill:#3b3b3b"/><path d="M521,1030.69l-17.06-17.06q-10.62-10.62-21-.27l-12.84,12.84q-5.73,5.73-2.42,13.33l-5.45-5.46-8.77,8.77L483.6,1073h9.3l4.12-4.12-27.76-27.76L491.43,1019,511,1038.49q4.83,4.85,8,5t7.73-4.41l4.7-4.7-7-7Z" style="fill:#3b3b3b"/><path d="M530.58,1004.52l29.9-29.9L550,964.12q-5-5-8.7-5.38-3.37-.35-6.77,3l-24.3,24.31q-9,9-.14,18l17.4,17.4q4.42,4.41,8.29,4.55c2.67,0,5.48-1.47,8.42-4.41l23.69-23.69,1.06-14.75L539.07,1013Zm-3.94-3.94-8.42-8.42,22.23-22.24,8.43,8.43Z" style="fill:#3b3b3b"/><path d="M610.37,948.42l-22.11-22.11-19.07,19.07,5.18,5.19A8,8,0,0,1,584.82,961l9.91,9.91L609,956.67Q613.8,951.86,610.37,948.42ZM581,944l5.82-5.82,5.07,5.07-5.82,5.82Zm19.23,10.81L596.06,959l-5.54-5.53,5.83-5.82,4.48,4.49C601.53,952.83,601.34,953.71,600.27,954.79Z" style="fill:#3b3b3b"/><path d="M571.76,963.63a8,8,0,0,1-1.73-8.74l-14.46-14.46-10,10,34.84,34.83,10-10-9.91-9.91A8,8,0,0,1,571.76,963.63Z" style="fill:#3b3b3b"/><circle cx="577.42" cy="957.97" r="6" style="fill:#3b3b3b"/><polygon points="544.39 930.3 540.55 923.19 537.24 930.56 529.3 932.02 535.29 937.44 534.22 945.44 541.23 941.42 548.51 944.91 546.85 937.01 552.42 931.16 544.39 930.3" style="fill:#3b3b3b"/><polygon points="445.83 912.35 453.06 905.13 451.22 903.28 456.64 897.86 452.03 893.25 446.61 898.67 444.92 896.98 437.69 904.21 439.38 905.9 419.26 926.03 417.72 924.49 410.54 931.67 412.08 933.2 406.21 939.08 410.82 943.68 416.69 937.81 418.53 939.66 425.71 932.48 423.87 930.63 443.99 910.51 445.83 912.35" style="fill:#3b3b3b"/><path d="M468.93,933.84l4.21,4.21,4.21-4.21q6.22-6.23,2.43-10l-21.59-21.59-11.9,11.89-9.38,9.38,20.43,20.43c.78.78.68,1.65-.29,2.62l-.75.76,3.94,3.94,2.21-2.21q7-7,1.68-12.27l-1.65-1.65,7.27-7.28,1.84,1.84c.5.5.22,1.29-.85,2.36Zm-20.44-12.7,7.28-7.28,2.73,2.73-7.28,7.27Zm10,10-2.77-2.76,7.28-7.28,2.77,2.77Z" style="fill:#3b3b3b"/><path d="M487.15,912.05a10.61,10.61,0,0,1-2.49,3.73l-2.21,2.2,5.18,5.19,2.56-2.56a26.68,26.68,0,0,0,4.9-6.05,18.87,18.87,0,0,0,1.15-5.07l1.86-15.3q.25-3.26,1.11-4.11,1.6-1.61,3.41.2l4.32,4.21c1.93,1.87,3.81,2.61,5.66,2.25,1.62-.39,3.66-1.82,6.14-4.3l14.71-14.7-5.23-5.22L517.78,883a18.43,18.43,0,0,1-3.1,2.71,2,2,0,0,1-2.59-.48l-5-5a6.65,6.65,0,0,0-2.67-1.86q-1.77-.37-4.25,1.56,2.7-12.45,3.82-15.34L499.43,860l-35.28,35.28,5.11,5.11,22.93-22.94-4,29.91A25,25,0,0,1,487.15,912.05Z" style="fill:#3b3b3b"/><rect x="454.9" y="867.17" width="42.87" height="7.71" transform="translate(-476.39 591.94) rotate(-45)" style="fill:#3b3b3b"/><path d="M366.82,1030.69l-17.06-17.06q-10.63-10.62-21-.27l-12.85,12.84q-5.73,5.73-2.41,13.33l-5.46-5.46-8.77,8.77L329.44,1073h9.29l4.13-4.12-27.76-27.76L337.26,1019l19.54,19.54q4.84,4.85,8,5t7.74-4.41l4.69-4.7-7-7Z" style="fill:#3b3b3b"/><path d="M376.42,1004.52l29.9-29.9-10.5-10.5q-5-5-8.7-5.38c-2.26-.23-4.51.78-6.77,3L356,986.08q-9,9-.13,18l17.4,17.4c2.94,2.94,5.71,4.46,8.28,4.55s5.48-1.47,8.43-4.41l23.68-23.69,1.07-14.75L384.91,1013Zm-3.94-3.94-8.43-8.42,22.24-22.24,8.42,8.43Z" style="fill:#3b3b3b"/><path d="M456.2,948.42l-22.1-22.11L415,945.38l5.19,5.19A8,8,0,0,1,430.66,961l9.9,9.91,14.26-14.25Q459.64,951.86,456.2,948.42ZM426.88,944l5.82-5.82,5.07,5.07-5.83,5.82Zm19.23,10.81L441.89,959l-5.53-5.53,5.82-5.82,4.49,4.49C447.37,952.83,447.18,953.71,446.11,954.79Z" style="fill:#3b3b3b"/><path d="M417.6,963.63a8,8,0,0,1-1.73-8.74L401.4,940.43l-10,10,34.83,34.83,10-10-9.9-9.91A8,8,0,0,1,417.6,963.63Z" style="fill:#3b3b3b"/><circle cx="423.26" cy="957.97" r="6" style="fill:#3b3b3b"/><polygon points="390.22 930.3 386.38 923.19 383.08 930.56 375.14 932.02 381.13 937.44 380.06 945.44 387.06 941.42 394.35 944.91 392.69 937.01 398.25 931.16 390.22 930.3" style="fill:#3b3b3b"/><polygon points="291.67 912.35 298.9 905.13 297.05 903.28 302.47 897.86 297.87 893.25 292.44 898.67 290.75 896.98 283.53 904.21 285.22 905.9 265.09 926.03 263.56 924.49 256.38 931.67 257.92 933.2 252.04 939.08 256.65 943.68 262.52 937.81 264.37 939.66 271.55 932.48 269.7 930.63 289.83 910.51 291.67 912.35" style="fill:#3b3b3b"/><path d="M314.77,933.84l4.2,4.21,4.22-4.21q6.22-6.23,2.43-10L304,902.23l-11.9,11.89-9.38,9.38,20.43,20.43c.77.78.67,1.65-.3,2.62l-.75.76,3.95,3.94,2.2-2.21q7-7,1.68-12.27l-1.65-1.65,7.28-7.28,1.84,1.84c.5.5.21,1.29-.86,2.36Zm-20.44-12.7,7.28-7.28,2.73,2.73-7.28,7.27Zm10,10-2.77-2.76,7.28-7.28,2.76,2.77Z" style="fill:#3b3b3b"/><path d="M333,912.05a10.65,10.65,0,0,1-2.5,3.73l-2.21,2.2,5.19,5.19,2.56-2.56a26.29,26.29,0,0,0,4.89-6.05,18.78,18.78,0,0,0,1.16-5.07l1.86-15.3q.26-3.26,1.11-4.11,1.6-1.61,3.41.2l4.31,4.21c1.93,1.87,3.82,2.61,5.67,2.25q2.42-.59,6.14-4.3l14.7-14.7-5.22-5.22L363.62,883a18.85,18.85,0,0,1-3.1,2.71,2,2,0,0,1-2.59-.48l-5-5a6.57,6.57,0,0,0-2.66-1.86q-1.78-.37-4.26,1.56,2.7-12.45,3.83-15.34L345.27,860,310,895.27l5.11,5.11L338,877.44l-4,29.91A25.86,25.86,0,0,1,333,912.05Z" style="fill:#3b3b3b"/><rect x="300.74" y="867.17" width="42.87" height="7.71" transform="translate(-521.54 482.93) rotate(-45)" style="fill:#3b3b3b"/><path d="M212.65,1030.69l-17.05-17.06q-10.64-10.62-21-.27l-12.85,12.84q-5.73,5.73-2.42,13.33l-5.45-5.46-8.77,8.77L175.28,1073h9.29l4.12-4.12-27.76-27.76L183.1,1019l19.54,19.54q4.83,4.85,8,5t7.74-4.41l4.69-4.7-7-7Z" style="fill:#3b3b3b"/><path d="M222.25,1004.52l29.9-29.9-10.49-10.5q-5-5-8.7-5.38-3.39-.35-6.77,3l-24.31,24.31q-9,9-.14,18l17.4,17.4q4.43,4.41,8.29,4.55c2.67,0,5.48-1.47,8.43-4.41l23.68-23.69,1.07-14.75L230.75,1013Zm-3.93-3.94-8.43-8.42,22.24-22.24,8.42,8.43Z" style="fill:#3b3b3b"/><path d="M302,948.42l-22.11-22.11-19.07,19.07,5.19,5.19A8,8,0,0,1,276.49,961l9.91,9.91,14.26-14.25Q305.48,951.86,302,948.42ZM272.71,944l5.82-5.82,5.07,5.07-5.82,5.82Zm19.23,10.81L287.73,959l-5.53-5.53,5.82-5.82,4.49,4.49C293.2,952.83,293,953.71,291.94,954.79Z" style="fill:#3b3b3b"/><path d="M263.44,963.63a8,8,0,0,1-1.73-8.74l-14.47-14.46-10,10,34.83,34.83,10-10-9.9-9.91A8,8,0,0,1,263.44,963.63Z" style="fill:#3b3b3b"/><circle cx="269.09" cy="957.97" r="6" style="fill:#3b3b3b"/><polygon points="236.06 930.3 232.22 923.19 228.92 930.56 220.97 932.02 226.96 937.44 225.9 945.44 232.9 941.42 240.18 944.91 238.52 937.01 244.09 931.16 236.06 930.3" style="fill:#3b3b3b"/><polygon points="137.51 912.35 144.73 905.13 142.89 903.28 148.31 897.86 143.7 893.25 138.28 898.67 136.59 896.98 129.37 904.21 131.06 905.9 110.93 926.03 109.39 924.49 102.22 931.67 103.75 933.2 97.88 939.08 102.49 943.68 108.36 937.81 110.2 939.66 117.38 932.48 115.54 930.63 135.66 910.51 137.51 912.35" style="fill:#3b3b3b"/><path d="M160.6,933.84l4.21,4.21,4.22-4.21q6.21-6.23,2.43-10l-21.6-21.59L138,914.12l-9.39,9.38L149,943.93c.78.78.68,1.65-.29,2.62l-.75.76,3.94,3.94,2.21-2.21q7-7,1.68-12.27l-1.65-1.65,7.28-7.28,1.84,1.84c.5.5.21,1.29-.86,2.36Zm-20.43-12.7,7.28-7.28,2.72,2.73-7.28,7.27Zm10,10-2.76-2.76,7.28-7.28,2.76,2.77Z" style="fill:#3b3b3b"/><path d="M178.83,912.05a10.78,10.78,0,0,1-2.5,3.73l-2.21,2.2,5.19,5.19,2.56-2.56a26.29,26.29,0,0,0,4.89-6.05,18.87,18.87,0,0,0,1.15-5.07l1.86-15.3c.18-2.17.55-3.54,1.12-4.11,1.07-1.07,2.2-1,3.41.2l4.31,4.21c1.93,1.87,3.82,2.61,5.66,2.25q2.43-.59,6.14-4.3l14.71-14.7-5.22-5.22L209.46,883a18.35,18.35,0,0,1-3.11,2.71,2,2,0,0,1-2.59-.48l-5-5a6.65,6.65,0,0,0-2.67-1.86q-1.77-.37-4.25,1.56,2.7-12.45,3.82-15.34L191.1,860l-35.28,35.28,5.11,5.11,22.94-22.94-4,29.91A25.19,25.19,0,0,1,178.83,912.05Z" style="fill:#3b3b3b"/><rect x="146.58" y="867.17" width="42.87" height="7.71" transform="translate(-566.7 373.92) rotate(-45)" style="fill:#3b3b3b"/><path d="M58.49,1030.69l-17.06-17.06q-10.62-10.62-21-.27L7.6,1026.2q-5.73,5.73-2.42,13.33L0,1034.35v17.54L21.11,1073h9.3l4.12-4.12L6.77,1041.12,28.94,1019l19.54,19.54q4.83,4.85,8,5t7.73-4.41l4.7-4.7-7.05-7Z" style="fill:#3b3b3b"/><path d="M68.09,1004.52,98,974.62l-10.5-10.5q-5-5-8.7-5.38-3.37-.35-6.77,3l-24.3,24.31q-9,9-.14,18l17.4,17.4q4.42,4.41,8.29,4.55c2.67,0,5.48-1.47,8.42-4.41l23.69-23.69,1.06-14.75L76.58,1013Zm-3.94-3.94-8.42-8.42L78,969.92l8.43,8.43Z" style="fill:#3b3b3b"/><path d="M147.88,948.42l-22.11-22.11L106.7,945.38l5.18,5.19A8,8,0,0,1,122.33,961l9.91,9.91,14.25-14.25Q151.3,951.86,147.88,948.42ZM118.55,944l5.82-5.82,5.07,5.07-5.82,5.82Zm19.23,10.81L133.57,959,128,953.47l5.82-5.82,4.48,4.49C139,952.83,138.85,953.71,137.78,954.79Z" style="fill:#3b3b3b"/><path d="M109.27,963.63a8,8,0,0,1-1.73-8.74L93.08,940.43l-10,10,34.83,34.83,10-10L118,965.35A8,8,0,0,1,109.27,963.63Z" style="fill:#3b3b3b"/><circle cx="114.93" cy="957.97" r="6" style="fill:#3b3b3b"/><polygon points="81.9 930.3 78.06 923.19 74.75 930.56 66.81 932.02 72.8 937.44 71.73 945.44 78.73 941.42 86.02 944.91 84.36 937.01 89.93 931.16 81.9 930.3" style="fill:#3b3b3b"/><path d="M1.64,936.77,0,935.13V949Q6.92,942.06,1.64,936.77Z" style="fill:#3b3b3b"/><path d="M9.1,929.68c.5.5.22,1.29-.85,2.36l-1.81,1.8,4.21,4.21,4.21-4.21q6.23-6.23,2.43-10L0,906.53v15.05l.5-.5,2.77,2.77L0,927.11v8l7.26-7.26Z" style="fill:#3b3b3b"/><path d="M24.66,912.05a10.61,10.61,0,0,1-2.49,3.73L20,918l5.18,5.19,2.56-2.56a26.68,26.68,0,0,0,4.9-6.05,18.87,18.87,0,0,0,1.15-5.07l1.86-15.3q.26-3.26,1.11-4.11,1.61-1.61,3.41.2l4.32,4.21c1.93,1.87,3.81,2.61,5.66,2.25,1.62-.39,3.66-1.82,6.14-4.3L71,877.74l-5.23-5.22L55.29,883a18.43,18.43,0,0,1-3.1,2.71,2,2,0,0,1-2.59-.48l-5-5a6.65,6.65,0,0,0-2.67-1.86q-1.77-.37-4.25,1.56,2.7-12.45,3.82-15.34L36.94,860,1.66,895.27l5.11,5.11L29.7,877.44l-4,29.91A25,25,0,0,1,24.66,912.05Z" style="fill:#3b3b3b"/><polygon points="31.73 858.59 26.28 853.14 0 879.42 0 887.49 1.42 888.9 31.73 858.59" style="fill:#3b3b3b"/><path d="M736.81,816.18l-17.06-17q-10.63-10.64-21-.28l-12.84,12.84q-5.74,5.74-2.42,13.33L678,819.57l-8.77,8.77,34.81,34.8,8.77-8.77-27.76-27.76,22.16-22.17L726.8,824q4.83,4.83,8,5t7.73-4.42l4.7-4.7-7-7Z" style="fill:#3b3b3b"/><path d="M757.11,744.23c-2.26-.23-4.51.78-6.77,3L726,771.57q-9.06,9.06-.14,18l17.4,17.4q4.43,4.43,8.29,4.56t8.42-4.42l11-11V782.4l-16.1,16.11-8.49-8.5L771,765.42V754.8l-5.19-5.18Q760.85,744.64,757.11,744.23Zm-14.64,41.85-8.42-8.43,22.23-22.23,8.43,8.42Z" style="fill:#3b3b3b"/><polygon points="771 745.55 771 726.32 761.38 735.93 771 745.55" style="fill:#3b3b3b"/><polygon points="760.22 715.79 756.38 708.68 753.07 716.05 745.13 717.51 751.12 722.93 750.05 730.94 757.05 726.91 764.34 730.4 762.68 722.5 768.25 716.65 760.22 715.79" style="fill:#3b3b3b"/><polygon points="667.86 678.75 662.44 684.17 660.75 682.48 653.52 689.71 655.21 691.39 635.09 711.52 633.55 709.98 626.37 717.16 627.91 718.7 622.04 724.57 626.64 729.18 632.52 723.3 634.36 725.15 641.54 717.97 639.69 716.13 659.82 696 661.66 697.85 668.89 690.62 667.05 688.78 672.47 683.36 667.86 678.75" style="fill:#3b3b3b"/><path d="M684.76,719.34l4.21,4.2,4.21-4.21q6.23-6.23,2.43-10L674,687.72l-11.9,11.89L652.74,709l20.43,20.43c.77.77.68,1.65-.29,2.62l-.76.75,4,3.94,2.21-2.21q7-7,1.68-12.27l-1.66-1.65,7.28-7.28,1.84,1.84c.5.51.22,1.29-.85,2.36Zm-20.44-12.71,7.28-7.28,2.73,2.73-7.28,7.28Zm10,10-2.77-2.77,7.28-7.28,2.77,2.77Z" style="fill:#3b3b3b"/><path d="M733.61,668.45a19.19,19.19,0,0,1-3.1,2.72,2,2,0,0,1-2.59-.48l-5-5a6.65,6.65,0,0,0-2.67-1.86c-1.19-.25-2.6.27-4.26,1.57q2.7-12.46,3.83-15.35l-4.57-4.57L680,680.76l5.1,5.11L708,662.93l-4,29.91a25.65,25.65,0,0,1-1,4.7,10.34,10.34,0,0,1-2.5,3.73l-2.2,2.21,5.18,5.18L706,706.1a26.68,26.68,0,0,0,4.9-6,19.27,19.27,0,0,0,1.15-5.08l1.86-15.3q.26-3.25,1.11-4.11,1.61-1.61,3.41.2l4.32,4.22q2.88,2.79,5.66,2.25c1.62-.39,3.66-1.83,6.14-4.3l14.7-14.71L744.05,658Z" style="fill:#3b3b3b"/><rect x="670.73" y="652.66" width="42.87" height="7.71" transform="translate(-261.49 681.73) rotate(-45)" style="fill:#3b3b3b"/><path d="M572.63,824c3.23,3.22,5.89,4.88,8,5s4.74-1.43,7.74-4.42l4.69-4.7-7-7-3.38,3.38-17.06-17q-10.64-10.64-21-.28l-12.85,12.84Q526,817.44,529.34,825l-5.46-5.45-8.77,8.77,34.8,34.8,8.77-8.77-27.76-27.76,22.17-22.17Z" style="fill:#3b3b3b"/><path d="M589.14,806.93c2.94,3,5.71,4.47,8.28,4.56s5.48-1.48,8.43-4.42l23.68-23.69,1.07-14.75-29.86,29.88-8.5-8.5,29.9-29.9-10.49-10.49q-5-5-8.7-5.39-3.39-.35-6.77,3l-24.31,24.3q-9,9.06-.14,18Zm13-51.51,8.42,8.42-22.23,22.24-8.43-8.43Z" style="fill:#3b3b3b"/><path d="M670.65,742.16q4.82-4.81,1.38-8.25L649.92,711.8l-19.07,19.08,5.19,5.18a8,8,0,0,1,10.44,10.45l9.91,9.91ZM642.7,729.48l5.83-5.82,5.07,5.07-5.83,5.82ZM658,733.14l4.49,4.49c.69.69.51,1.58-.56,2.65l-4.22,4.21L652.19,739Z" style="fill:#3b3b3b"/><path d="M642.16,750.85a8,8,0,0,1-10.46-10.46l-14.47-14.47-10,10,34.83,34.84,10-10Z" style="fill:#3b3b3b"/><circle cx="639.08" cy="743.46" r="6" style="fill:#3b3b3b"/><polygon points="606.05 715.79 602.21 708.68 598.91 716.05 590.97 717.51 596.96 722.93 595.89 730.94 602.89 726.91 610.17 730.4 608.51 722.5 614.08 716.65 606.05 715.79" style="fill:#3b3b3b"/><polygon points="513.69 678.75 508.27 684.17 506.58 682.48 499.36 689.71 501.05 691.39 480.92 711.52 479.38 709.98 472.21 717.16 473.75 718.7 467.87 724.57 472.48 729.18 478.35 723.3 480.2 725.15 487.37 717.97 485.53 716.13 505.65 696 507.5 697.85 514.73 690.62 512.88 688.78 518.3 683.36 513.69 678.75" style="fill:#3b3b3b"/><path d="M530.6,719.34l4.2,4.2,4.22-4.21q6.22-6.23,2.43-10l-21.6-21.59L508,699.61,498.57,709,519,729.43c.78.77.68,1.65-.29,2.62l-.75.75,3.94,3.94,2.21-2.21q7-7,1.68-12.27l-1.65-1.65,7.28-7.28,1.84,1.84c.5.51.21,1.29-.86,2.36Zm-20.44-12.71,7.28-7.28,2.72,2.73-7.27,7.28Zm10,10-2.77-2.77,7.28-7.28,2.76,2.77Z" style="fill:#3b3b3b"/><path d="M548.82,697.54a10.47,10.47,0,0,1-2.5,3.73l-2.21,2.21,5.19,5.18,2.56-2.56a26.29,26.29,0,0,0,4.89-6,18.77,18.77,0,0,0,1.16-5.08l1.86-15.3q.26-3.25,1.11-4.11,1.61-1.61,3.41.2L568.6,680q2.89,2.79,5.66,2.25c1.62-.39,3.67-1.83,6.15-4.3l14.7-14.71L589.89,658l-10.44,10.44a19.65,19.65,0,0,1-3.1,2.72,2,2,0,0,1-2.59-.48l-5-5a6.7,6.7,0,0,0-2.66-1.86q-1.79-.37-4.26,1.57,2.7-12.46,3.83-15.35l-4.57-4.57-35.29,35.28,5.11,5.11,22.94-22.94-4,29.91A25.65,25.65,0,0,1,548.82,697.54Z" style="fill:#3b3b3b"/><rect x="516.57" y="652.66" width="42.87" height="7.71" transform="translate(-306.65 572.71) rotate(-45)" style="fill:#3b3b3b"/><path d="M418.47,824q4.83,4.83,8,5t7.73-4.42l4.7-4.7-7-7-3.39,3.38-17.05-17q-10.64-10.64-21-.28l-12.84,12.84q-5.73,5.74-2.42,13.33l-5.45-5.45L361,828.34l34.8,34.8,8.77-8.77-27.76-27.76,22.17-22.17Z" style="fill:#3b3b3b"/><path d="M435,806.93q4.42,4.43,8.29,4.56t8.42-4.42l23.69-23.69,1.07-14.75-29.87,29.88-8.49-8.5,29.9-29.9-10.5-10.49q-5-5-8.7-5.39c-2.25-.23-4.51.78-6.76,3l-24.31,24.3q-9,9.06-.14,18Zm13-51.51,8.42,8.42-22.24,22.24-8.42-8.43Z" style="fill:#3b3b3b"/><path d="M516.48,742.16q4.83-4.81,1.39-8.25L495.76,711.8l-19.07,19.08,5.19,5.18a8,8,0,0,1,10.44,10.45l9.91,9.91Zm-27.94-12.68,5.82-5.82,5.07,5.07-5.82,5.82Zm15.31,3.66,4.48,4.49c.7.69.51,1.58-.56,2.65l-4.21,4.21L498,739Z" style="fill:#3b3b3b"/><path d="M488,750.85a8,8,0,0,1-10.47-10.46l-14.46-14.47-10,10,34.83,34.84,10-10Z" style="fill:#3b3b3b"/><circle cx="484.92" cy="743.46" r="6" style="fill:#3b3b3b"/><polygon points="451.89 715.79 448.05 708.68 444.75 716.05 436.8 717.51 442.79 722.93 441.72 730.94 448.73 726.91 456.01 730.4 454.35 722.5 459.92 716.65 451.89 715.79" style="fill:#3b3b3b"/><polygon points="359.53 678.75 354.11 684.17 352.42 682.48 345.19 689.71 346.88 691.39 326.76 711.52 325.22 709.98 318.05 717.16 319.58 718.7 313.71 724.57 318.32 729.18 324.19 723.3 326.03 725.15 333.21 717.97 331.37 716.13 351.49 696 353.34 697.85 360.56 690.62 358.72 688.78 364.14 683.36 359.53 678.75" style="fill:#3b3b3b"/><path d="M376.43,719.34l4.21,4.2,4.21-4.21q6.22-6.23,2.44-10l-21.6-21.59L353.8,699.61,344.41,709l20.43,20.43c.78.77.68,1.65-.29,2.62l-.75.75,3.94,3.94,2.21-2.21q7-7,1.68-12.27L370,720.61l7.27-7.28,1.84,1.84c.51.51.22,1.29-.85,2.36ZM356,706.63l7.27-7.28,2.73,2.73-7.28,7.28Zm10,10-2.76-2.77,7.27-7.28,2.77,2.77Z" style="fill:#3b3b3b"/><path d="M394.66,697.54a10.6,10.6,0,0,1-2.5,3.73L390,703.48l5.18,5.18,2.56-2.56a26.39,26.39,0,0,0,4.9-6,18.87,18.87,0,0,0,1.15-5.08l1.86-15.3c.18-2.17.55-3.54,1.12-4.11,1.07-1.07,2.2-1,3.41.2l4.31,4.22c1.93,1.86,3.81,2.61,5.66,2.25,1.62-.39,3.67-1.83,6.14-4.3L441,663.23,435.72,658l-10.43,10.44a19.1,19.1,0,0,1-3.11,2.72,2,2,0,0,1-2.59-.48l-5-5a6.65,6.65,0,0,0-2.67-1.86q-1.77-.37-4.25,1.57,2.7-12.46,3.82-15.35l-4.57-4.57-35.28,35.28,5.11,5.11,22.93-22.94-4,29.91A25,25,0,0,1,394.66,697.54Z" style="fill:#3b3b3b"/><rect x="362.41" y="652.66" width="42.87" height="7.71" transform="translate(-351.8 463.7) rotate(-45)" style="fill:#3b3b3b"/><path d="M264.31,824q4.83,4.83,8,5t7.73-4.42l4.7-4.7-7.05-7-3.38,3.38-17.06-17q-10.63-10.64-21-.28l-12.84,12.84Q217.69,817.44,221,825l-5.46-5.45-8.77,8.77,34.81,34.8,8.77-8.77L222.6,826.61l22.16-22.17Z" style="fill:#3b3b3b"/><path d="M280.81,806.93q4.43,4.43,8.29,4.56t8.42-4.42l23.69-23.69,1.06-14.75-29.86,29.88-8.49-8.5,29.9-29.9-10.5-10.49q-5-5-8.7-5.39c-2.26-.23-4.51.78-6.77,3l-24.3,24.3q-9,9.06-.14,18Zm13-51.51,8.43,8.42L280,786.08l-8.42-8.43Z" style="fill:#3b3b3b"/><path d="M362.32,742.16q4.81-4.81,1.39-8.25L341.6,711.8l-19.07,19.08,5.18,5.18a8,8,0,0,1,10.45,10.45l9.91,9.91Zm-27.94-12.68,5.82-5.82,5.07,5.07-5.82,5.82Zm15.31,3.66,4.48,4.49c.7.69.51,1.58-.56,2.65l-4.22,4.21L343.86,739Z" style="fill:#3b3b3b"/><path d="M333.83,750.85a8,8,0,0,1-10.46-10.46l-14.46-14.47-10,10,34.83,34.84,10-10Z" style="fill:#3b3b3b"/><circle cx="330.76" cy="743.46" r="6" style="fill:#3b3b3b"/><polygon points="297.73 715.79 293.88 708.68 290.58 716.05 282.64 717.51 288.63 722.93 287.56 730.94 294.56 726.91 301.85 730.4 300.19 722.5 305.76 716.65 297.73 715.79" style="fill:#3b3b3b"/><polygon points="205.37 678.75 199.95 684.17 198.26 682.48 191.03 689.71 192.72 691.39 172.59 711.52 171.06 709.98 163.88 717.16 165.42 718.7 159.55 724.57 164.16 729.18 170.03 723.3 171.87 725.15 179.05 717.97 177.2 716.13 197.33 696 199.17 697.85 206.4 690.62 204.56 688.78 209.98 683.36 205.37 678.75" style="fill:#3b3b3b"/><path d="M222.27,719.34l4.21,4.2,4.21-4.21q6.23-6.23,2.43-10l-21.59-21.59-11.9,11.89L190.25,709l20.43,20.43c.77.77.68,1.65-.29,2.62l-.76.75,4,3.94,2.21-2.21q7-7,1.68-12.27l-1.66-1.65,7.28-7.28,1.84,1.84c.5.51.22,1.29-.85,2.36Zm-20.44-12.71,7.28-7.28,2.73,2.73-7.28,7.28Zm10,10-2.77-2.77,7.28-7.28,2.77,2.77Z" style="fill:#3b3b3b"/><path d="M240.49,697.54a10.44,10.44,0,0,1-2.49,3.73l-2.21,2.21,5.18,5.18,2.56-2.56a26.68,26.68,0,0,0,4.9-6,19.27,19.27,0,0,0,1.15-5.08l1.86-15.3q.26-3.25,1.11-4.11,1.6-1.61,3.41.2l4.32,4.22q2.88,2.79,5.66,2.25c1.62-.39,3.66-1.83,6.14-4.3l14.7-14.71L281.56,658l-10.44,10.44a19.19,19.19,0,0,1-3.1,2.72,2,2,0,0,1-2.59-.48l-5-5a6.65,6.65,0,0,0-2.67-1.86c-1.19-.25-2.6.27-4.26,1.57q2.7-12.46,3.83-15.35l-4.57-4.57-35.28,35.28,5.1,5.11,22.94-22.94-4,29.91A25.65,25.65,0,0,1,240.49,697.54Z" style="fill:#3b3b3b"/><rect x="208.24" y="652.66" width="42.87" height="7.71" transform="translate(-396.95 354.69) rotate(-45)" style="fill:#3b3b3b"/><path d="M110.14,824q4.85,4.83,8,5c2.17,0,4.74-1.43,7.74-4.42l4.69-4.7-7-7-3.38,3.38-17.06-17q-10.63-10.64-21-.28L69.26,811.69q-5.73,5.74-2.41,13.33l-5.46-5.45-8.77,8.77,34.8,34.8,8.77-8.77L68.43,826.61,90.6,804.44Z" style="fill:#3b3b3b"/><path d="M126.65,806.93c2.94,3,5.71,4.47,8.28,4.56s5.48-1.48,8.43-4.42L167,783.38l1.07-14.75-29.86,29.88-8.5-8.5,29.9-29.9-10.49-10.49q-5-5-8.7-5.39c-2.26-.23-4.51.78-6.77,3l-24.31,24.3q-9,9.06-.13,18Zm13-51.51,8.42,8.42-22.23,22.24-8.43-8.43Z" style="fill:#3b3b3b"/><path d="M208.16,742.16q4.82-4.81,1.38-8.25L187.43,711.8l-19.07,19.08,5.19,5.18A8,8,0,0,1,184,746.51l9.91,9.91Zm-27.95-12.68,5.83-5.82,5.07,5.07-5.83,5.82Zm15.31,3.66,4.49,4.49c.69.69.51,1.58-.56,2.65l-4.22,4.21L189.7,739Z" style="fill:#3b3b3b"/><path d="M179.67,750.85a8,8,0,0,1-10.46-10.46l-14.47-14.47-10,10,34.83,34.84,10-10Z" style="fill:#3b3b3b"/><circle cx="176.6" cy="743.46" r="6" style="fill:#3b3b3b"/><polygon points="143.56 715.79 139.72 708.68 136.42 716.05 128.48 717.51 134.47 722.93 133.4 730.94 140.4 726.91 147.68 730.4 146.02 722.5 151.59 716.65 143.56 715.79" style="fill:#3b3b3b"/><polygon points="9.99 729.18 15.86 723.3 17.71 725.15 24.88 717.97 23.04 716.13 43.17 696 45.01 697.85 52.24 690.62 50.39 688.78 55.81 683.36 51.2 678.75 45.78 684.17 44.09 682.48 36.87 689.71 38.56 691.39 18.43 711.52 16.9 709.98 9.72 717.16 11.26 718.7 5.38 724.57 9.99 729.18" style="fill:#3b3b3b"/><path d="M68.11,719.34l4.2,4.2,4.22-4.21q6.23-6.23,2.43-10l-21.6-21.59L45.47,699.61,36.09,709l20.42,20.43c.78.77.68,1.65-.29,2.62l-.75.75,3.94,3.94,2.21-2.21q7-7,1.68-12.27l-1.65-1.65,7.28-7.28,1.84,1.84c.5.51.21,1.29-.86,2.36ZM47.67,706.63,55,699.35l2.72,2.73-7.27,7.28Zm10,10-2.77-2.77,7.28-7.28,2.76,2.77Z" style="fill:#3b3b3b"/><path d="M86.33,697.54a10.47,10.47,0,0,1-2.5,3.73l-2.21,2.21,5.19,5.18,2.56-2.56a26.29,26.29,0,0,0,4.89-6A18.77,18.77,0,0,0,95.42,695l1.86-15.3q.25-3.25,1.11-4.11,1.6-1.61,3.41.2l4.31,4.22q2.9,2.79,5.66,2.25c1.62-.39,3.67-1.83,6.15-4.3l14.7-14.71L127.4,658,117,668.45a19.65,19.65,0,0,1-3.1,2.72,2,2,0,0,1-2.59-.48l-5-5a6.7,6.7,0,0,0-2.66-1.86q-1.78-.37-4.26,1.57,2.7-12.46,3.83-15.35l-4.57-4.57L63.32,680.76l5.11,5.11,22.94-22.94-4,29.91A25.65,25.65,0,0,1,86.33,697.54Z" style="fill:#3b3b3b"/><rect x="54.08" y="652.66" width="42.87" height="7.71" transform="translate(-442.11 245.69) rotate(-45)" style="fill:#3b3b3b"/><polygon points="0 754.62 0 765.6 5.49 760.11 0 754.62" style="fill:#3b3b3b"/><polygon points="13.95 768.63 0 782.59 0 796.26 12.88 783.38 13.95 768.63" style="fill:#3b3b3b"/><path d="M39.74,756.42,54,742.16q4.83-4.81,1.39-8.25L33.27,711.8,14.2,730.88l5.19,5.18a8,8,0,0,1,10.44,10.45Zm6.11-18.79c.69.69.5,1.58-.57,2.65l-4.21,4.21L35.54,739l5.82-5.82Zm-19.8-8.15,5.82-5.82,5.07,5.07-5.82,5.82Z" style="fill:#3b3b3b"/><path d="M35.41,760.75l-9.9-9.9a8,8,0,0,1-10.46-10.46L.58,725.92,0,726.5v18.87l25.4,25.4Z" style="fill:#3b3b3b"/><circle cx="22.43" cy="743.46" r="6" style="fill:#3b3b3b"/><path d="M747.58,597.19q-5.73,5.73-2.42,13.32l-5.45-5.45-8.77,8.77,34.8,34.8,5.26-5.26v-7L746.75,612.1l22.17-22.16L771,592V579.24c-3.55-.09-7.07,1.6-10.57,5.1Z" style="fill:#3b3b3b"/><polygon points="729.52 464.24 724.1 469.66 722.41 467.97 715.19 475.2 716.88 476.89 696.75 497.01 695.21 495.48 688.04 502.65 689.57 504.19 683.7 510.06 688.31 514.67 694.18 508.8 696.02 510.64 703.2 503.46 701.36 501.62 721.48 481.5 723.33 483.34 730.55 476.11 728.71 474.27 734.13 468.85 729.52 464.24" style="fill:#3b3b3b"/><path d="M746.42,504.83l4.21,4.21,4.22-4.22q6.23-6.22,2.43-10l-21.6-21.59-11.89,11.9-9.39,9.38,20.43,20.43c.78.78.68,1.65-.29,2.62l-.75.75,3.94,4,2.21-2.21q7-7,1.68-12.27L740,506.1l7.28-7.27,1.84,1.84c.5.5.21,1.28-.86,2.35ZM726,492.12l7.28-7.27,2.72,2.72-7.28,7.28Zm10,10-2.76-2.77,7.28-7.27,2.76,2.76Z" style="fill:#3b3b3b"/><path d="M746.75,471.36l22.94-22.93-4,29.9a25.34,25.34,0,0,1-1,4.71,10.66,10.66,0,0,1-2.5,3.72L759.94,489l5.19,5.18,2.56-2.56a40.77,40.77,0,0,0,3.31-3.66v-51l-29.36,29.35Z" style="fill:#3b3b3b"/><polygon points="735.95 454.44 741.4 459.89 771 430.29 771 428.86 766.26 424.13 735.95 454.44" style="fill:#3b3b3b"/><path d="M634.3,609.48q4.83,4.83,8,5T650,610l4.7-4.69-7-7.05-3.38,3.39-17.06-17.06q-10.62-10.64-21-.28l-12.84,12.85q-5.73,5.73-2.42,13.32l-5.45-5.45-8.77,8.77,34.8,34.8,8.77-8.77L592.59,612.1l22.17-22.16Z" style="fill:#3b3b3b"/><path d="M673.31,535.11q-5-5-8.7-5.39c-2.25-.23-4.51.79-6.76,3l-24.31,24.31q-9,9-.14,17.95l17.4,17.4q4.43,4.43,8.29,4.56t8.42-4.42l23.69-23.68,1.06-14.75L662.4,584l-8.49-8.5,29.9-29.9ZM650,571.57l-8.42-8.43,22.23-22.23,8.43,8.42Z" style="fill:#3b3b3b"/><path d="M733.7,519.41,711.59,497.3l-19.07,19.07,5.18,5.19A8,8,0,0,1,708.15,532l9.91,9.91,14.25-14.25Q737.13,522.83,733.7,519.41ZM704.37,515l5.82-5.82,5.07,5.07L709.44,520Zm19.23,10.8L719.39,530l-5.53-5.53,5.82-5.82,4.48,4.48C724.86,523.82,724.67,524.7,723.6,525.77Z" style="fill:#3b3b3b"/><path d="M678.9,511.41l-10,10,34.83,34.83,10-10-9.91-9.91a8,8,0,0,1-10.46-10.46Z" style="fill:#3b3b3b"/><circle cx="700.75" cy="528.95" r="6" style="fill:#3b3b3b"/><polygon points="667.72 501.28 663.88 494.18 660.58 501.55 652.63 503 658.62 508.42 657.55 516.43 664.56 512.41 671.84 515.9 670.18 507.99 675.75 502.14 667.72 501.28" style="fill:#3b3b3b"/><polygon points="534.15 514.67 540.02 508.8 541.86 510.64 549.04 503.46 547.2 501.62 567.32 481.5 569.16 483.34 576.39 476.11 574.55 474.27 579.97 468.85 575.36 464.24 569.94 469.66 568.25 467.97 561.02 475.2 562.71 476.89 542.59 497.01 541.05 495.48 533.87 502.65 535.41 504.19 529.54 510.06 534.15 514.67" style="fill:#3b3b3b"/><path d="M569.63,485.11l-9.39,9.38,20.43,20.43c.78.78.68,1.65-.29,2.62l-.75.75,3.94,4,2.21-2.21q7-7,1.68-12.27l-1.65-1.66,7.27-7.27,1.84,1.84c.5.5.22,1.28-.85,2.35l-1.81,1.81,4.21,4.21,4.21-4.22q6.23-6.22,2.43-10l-21.59-21.59Zm19.46,9.72-7.28,7.28-2.76-2.77,7.27-7.27Zm-14.54,0-2.73-2.73,7.28-7.27,2.73,2.72Z" style="fill:#3b3b3b"/><path d="M641.11,453.94a18.67,18.67,0,0,1-3.1,2.72,2,2,0,0,1-2.59-.48l-5-5a6.7,6.7,0,0,0-2.67-1.87c-1.18-.25-2.6.28-4.25,1.57q2.7-12.47,3.82-15.35L622.76,431l-35.28,35.28,5.11,5.11,22.93-22.93-4,29.9a24.37,24.37,0,0,1-1,4.71,10.49,10.49,0,0,1-2.49,3.72L605.78,489l5.18,5.18,2.56-2.56a26.46,26.46,0,0,0,4.9-6,18.87,18.87,0,0,0,1.15-5.07l1.86-15.31c.17-2.16.54-3.53,1.11-4.1,1.07-1.07,2.21-1,3.41.2l4.32,4.21c1.93,1.86,3.81,2.61,5.66,2.25,1.62-.39,3.66-1.82,6.14-4.3l14.71-14.7-5.23-5.23Z" style="fill:#3b3b3b"/><rect x="578.23" y="438.15" width="42.87" height="7.71" transform="translate(-136.91 553.49) rotate(-45)" style="fill:#3b3b3b"/><path d="M480.13,609.48q4.85,4.83,8,5t7.74-4.42l4.69-4.69-7-7.05-3.38,3.39-17.06-17.06q-10.63-10.64-21-.28l-12.84,12.85q-5.75,5.73-2.42,13.32l-5.46-5.45-8.77,8.77,34.81,34.8,8.77-8.77L438.43,612.1l22.16-22.16Z" style="fill:#3b3b3b"/><path d="M538.1,554.13,508.24,584l-8.49-8.5,29.9-29.9-10.5-10.49c-3.31-3.32-6.22-5.11-8.7-5.39-2.26-.23-4.51.79-6.77,3l-24.3,24.31q-9.06,9-.14,17.95l17.4,17.4q4.42,4.43,8.28,4.56c2.68,0,5.48-1.47,8.43-4.42L537,568.88Zm-42.29,17.44-8.42-8.43,22.23-22.23,8.42,8.42Z" style="fill:#3b3b3b"/><path d="M578.15,527.66q4.82-4.83,1.38-8.25l-22.1-22.11-19.08,19.07,5.19,5.19A8,8,0,0,1,554,532l9.91,9.91ZM550.21,515l5.82-5.82,5.07,5.07L555.28,520Zm15.3,3.67,4.49,4.48c.7.7.51,1.58-.56,2.65L565.22,530l-5.53-5.53Z" style="fill:#3b3b3b"/><path d="M549.66,536.34a8,8,0,0,1-10.46-10.46l-14.47-14.47-10,10,34.83,34.83,10-10Z" style="fill:#3b3b3b"/><circle cx="546.59" cy="528.95" r="6" style="fill:#3b3b3b"/><polygon points="513.55 501.28 509.71 494.18 506.41 501.55 498.47 503 504.46 508.42 503.39 516.43 510.39 512.41 517.67 515.9 516.01 507.99 521.59 502.14 513.55 501.28" style="fill:#3b3b3b"/><polygon points="379.98 514.67 385.86 508.8 387.7 510.64 394.88 503.46 393.03 501.62 413.16 481.5 415 483.34 422.23 476.11 420.38 474.27 425.81 468.85 421.2 464.24 415.78 469.66 414.09 467.97 406.86 475.2 408.55 476.89 388.42 497.01 386.89 495.48 379.71 502.65 381.25 504.19 375.38 510.06 379.98 514.67" style="fill:#3b3b3b"/><path d="M415.46,485.11l-9.38,9.38,20.43,20.43c.77.78.68,1.65-.29,2.62l-.76.75,4,4,2.2-2.21q7-7,1.69-12.27l-1.66-1.66,7.28-7.27,1.84,1.84c.5.5.22,1.28-.85,2.35l-1.81,1.81,4.2,4.21,4.22-4.22q6.23-6.22,2.43-10l-21.59-21.59Zm19.46,9.72-7.27,7.28-2.77-2.77,7.28-7.27Zm-14.53,0-2.73-2.73,7.28-7.27,2.73,2.72Z" style="fill:#3b3b3b"/><path d="M438.42,471.36l22.94-22.93-4,29.9a26,26,0,0,1-1,4.71,10.52,10.52,0,0,1-2.5,3.72l-2.2,2.21,5.18,5.18,2.56-2.56a26.08,26.08,0,0,0,4.89-6,18.78,18.78,0,0,0,1.16-5.07l1.86-15.31c.17-2.16.54-3.53,1.11-4.1,1.07-1.07,2.21-1,3.41.2l4.31,4.21q2.89,2.79,5.67,2.25c1.62-.39,3.66-1.82,6.14-4.3l14.7-14.7-5.22-5.23L487,453.94a18.67,18.67,0,0,1-3.1,2.72,2,2,0,0,1-2.59-.48l-5-5a6.7,6.7,0,0,0-2.67-1.87c-1.19-.25-2.61.28-4.26,1.57q2.7-12.47,3.83-15.35L468.6,431l-35.28,35.28Z" style="fill:#3b3b3b"/><rect x="424.07" y="438.15" width="42.87" height="7.71" transform="translate(-182.06 444.48) rotate(-45)" style="fill:#3b3b3b"/><path d="M326,609.48q4.83,4.83,8,5t7.74-4.42l4.69-4.69-7-7.05L336,601.68l-17.05-17.06q-10.64-10.64-21-.28l-12.85,12.85q-5.73,5.73-2.42,13.32l-5.45-5.45-8.77,8.77,34.8,34.8,8.77-8.77L284.26,612.1l22.17-22.16Z" style="fill:#3b3b3b"/><path d="M383.94,554.13,354.08,584l-8.5-8.5,29.9-29.9L365,535.11q-5-5-8.7-5.39c-2.26-.23-4.52.79-6.77,3l-24.31,24.31q-9,9-.14,17.95l17.41,17.4q4.41,4.43,8.28,4.56t8.43-4.42l23.68-23.68Zm-42.29,17.44-8.43-8.43,22.24-22.23,8.42,8.42Z" style="fill:#3b3b3b"/><path d="M424,527.66q4.81-4.83,1.38-8.25L403.26,497.3l-19.07,19.07,5.19,5.19A8,8,0,0,1,399.82,532l9.91,9.91ZM396,515l5.82-5.82,5.07,5.07L401.11,520Zm15.31,3.67,4.49,4.48c.69.7.51,1.58-.57,2.65L411.06,530l-5.53-5.53Z" style="fill:#3b3b3b"/><path d="M395.5,536.34A8,8,0,0,1,385,525.88l-14.47-14.47-10,10,34.83,34.83,10-10Z" style="fill:#3b3b3b"/><circle cx="392.42" cy="528.95" r="6" style="fill:#3b3b3b"/><polygon points="359.39 501.28 355.55 494.18 352.25 501.55 344.31 503 350.29 508.42 349.23 516.43 356.23 512.41 363.51 515.9 361.85 507.99 367.42 502.14 359.39 501.28" style="fill:#3b3b3b"/><polygon points="225.82 514.67 231.69 508.8 233.53 510.64 240.71 503.46 238.87 501.62 258.99 481.5 260.84 483.34 268.06 476.11 266.22 474.27 271.64 468.85 267.03 464.24 261.61 469.66 259.92 467.97 252.7 475.2 254.39 476.89 234.26 497.01 232.72 495.48 225.55 502.65 227.08 504.19 221.21 510.06 225.82 514.67" style="fill:#3b3b3b"/><path d="M261.3,485.11l-9.39,9.38,20.43,20.43c.78.78.68,1.65-.29,2.62l-.75.75,3.94,4,2.21-2.21q7-7,1.68-12.27l-1.65-1.66,7.28-7.27,1.84,1.84c.5.5.21,1.28-.86,2.35l-1.8,1.81,4.2,4.21,4.22-4.22q6.22-6.22,2.43-10l-21.6-21.59Zm19.46,9.72-7.28,7.28-2.76-2.77,7.28-7.27Zm-14.53,0-2.73-2.73,7.28-7.27,2.72,2.72Z" style="fill:#3b3b3b"/><path d="M284.26,471.36l22.94-22.93-4,29.9a26,26,0,0,1-1,4.71,10.66,10.66,0,0,1-2.5,3.72L297.45,489l5.19,5.18,2.56-2.56a26.08,26.08,0,0,0,4.89-6,18.87,18.87,0,0,0,1.15-5.07l1.87-15.31c.17-2.16.54-3.53,1.11-4.1,1.07-1.07,2.21-1,3.41.2l4.31,4.21q2.9,2.79,5.66,2.25,2.43-.59,6.14-4.3l14.71-14.7-5.22-5.23-10.44,10.44a18.59,18.59,0,0,1-3.11,2.72,2,2,0,0,1-2.59-.48l-5-5a6.7,6.7,0,0,0-2.67-1.87c-1.18-.25-2.6.28-4.25,1.57q2.7-12.47,3.82-15.35L314.43,431l-35.28,35.28Z" style="fill:#3b3b3b"/><rect x="269.91" y="438.15" width="42.87" height="7.71" transform="translate(-227.21 335.47) rotate(-45)" style="fill:#3b3b3b"/><path d="M171.81,609.48q4.83,4.83,8,5t7.73-4.42l4.7-4.69-7.05-7.05-3.38,3.39-17.06-17.06q-10.62-10.64-21-.28l-12.84,12.85q-5.73,5.73-2.42,13.32l-5.45-5.45-8.77,8.77,34.8,34.8,8.77-8.77L130.1,612.1l22.17-22.16Z" style="fill:#3b3b3b"/><path d="M229.78,554.13,199.91,584l-8.49-8.5,29.9-29.9-10.5-10.49q-5-5-8.7-5.39c-2.25-.23-4.51.79-6.76,3l-24.31,24.31q-9,9-.14,17.95l17.4,17.4q4.42,4.43,8.29,4.56t8.42-4.42l23.69-23.68Zm-42.3,17.44-8.42-8.43,22.23-22.23,8.43,8.42Z" style="fill:#3b3b3b"/><path d="M269.82,527.66q4.81-4.83,1.39-8.25L249.1,497.3,230,516.37l5.18,5.19A8,8,0,0,1,245.66,532l9.91,9.91ZM241.88,515l5.82-5.82,5.07,5.07L247,520Zm15.31,3.67,4.48,4.48c.7.7.51,1.58-.56,2.65L256.9,530l-5.53-5.53Z" style="fill:#3b3b3b"/><path d="M241.33,536.34a8,8,0,0,1-10.46-10.46l-14.46-14.47-10,10,34.83,34.83,10-10Z" style="fill:#3b3b3b"/><circle cx="238.26" cy="528.95" r="6" style="fill:#3b3b3b"/><polygon points="205.23 501.28 201.39 494.18 198.09 501.55 190.14 503 196.13 508.42 195.06 516.43 202.07 512.41 209.35 515.9 207.69 507.99 213.26 502.14 205.23 501.28" style="fill:#3b3b3b"/><polygon points="71.66 514.67 77.53 508.8 79.37 510.64 86.55 503.46 84.71 501.62 104.83 481.5 106.67 483.34 113.9 476.11 112.06 474.27 117.48 468.85 112.87 464.24 107.45 469.66 105.76 467.97 98.53 475.2 100.22 476.89 80.1 497.01 78.56 495.48 71.38 502.65 72.92 504.19 67.05 510.06 71.66 514.67" style="fill:#3b3b3b"/><path d="M107.14,485.11l-9.39,9.38,20.43,20.43c.78.78.68,1.65-.29,2.62l-.75.75,3.94,4,2.21-2.21q7-7,1.68-12.27l-1.65-1.66,7.27-7.27,1.84,1.84c.5.5.22,1.28-.85,2.35l-1.81,1.81L134,509l4.21-4.22q6.23-6.22,2.43-10L119,473.21Zm19.46,9.72-7.28,7.28-2.76-2.77,7.27-7.27Zm-14.54,0-2.72-2.73,7.27-7.27,2.73,2.72Z" style="fill:#3b3b3b"/><path d="M130.1,471.36,153,448.43l-4,29.9a24.37,24.37,0,0,1-1,4.71,10.49,10.49,0,0,1-2.49,3.72L143.29,489l5.18,5.18,2.56-2.56a26.46,26.46,0,0,0,4.9-6,18.87,18.87,0,0,0,1.15-5.07l1.86-15.31c.17-2.16.54-3.53,1.11-4.1,1.07-1.07,2.21-1,3.41.2l4.32,4.21c1.93,1.86,3.81,2.61,5.66,2.25q2.43-.59,6.14-4.3l14.71-14.7-5.23-5.23-10.44,10.44a18.67,18.67,0,0,1-3.1,2.72,2,2,0,0,1-2.59-.48l-5-5a6.7,6.7,0,0,0-2.67-1.87c-1.18-.25-2.6.28-4.25,1.57q2.7-12.47,3.82-15.35L160.27,431,125,466.25Z" style="fill:#3b3b3b"/><rect x="115.74" y="438.15" width="42.87" height="7.71" transform="translate(-272.37 226.46) rotate(-45)" style="fill:#3b3b3b"/><path d="M25.66,614.45q3.24.07,7.73-4.42l4.69-4.69-7-7.05-3.38,3.39L10.6,584.62Q5.26,579.28,0,579.24v12.59l17.64,17.65Q22.49,614.31,25.66,614.45Z" style="fill:#3b3b3b"/><polygon points="0 636.17 0 643.56 3.7 639.86 0 636.17" style="fill:#3b3b3b"/><path d="M16.75,575l17.4,17.4q4.43,4.43,8.29,4.56t8.42-4.42l23.68-23.68,1.07-14.75L45.75,584l-8.49-8.5,29.9-29.9-10.5-10.49q-5-5-8.7-5.39c-2.26-.23-4.51.79-6.77,3l-24.3,24.31Q7.83,566.12,16.75,575Zm30.38-34.11,8.43,8.42L33.32,571.57l-8.42-8.43Z" style="fill:#3b3b3b"/><path d="M101.41,541.91l14.25-14.25q4.82-4.83,1.38-8.25L94.94,497.3,75.86,516.37l5.19,5.19A8,8,0,0,1,91.5,532Zm6.1-18.79c.7.7.51,1.58-.56,2.65L102.73,530l-5.53-5.53,5.82-5.82ZM87.72,515l5.82-5.82,5.07,5.07L92.79,520Z" style="fill:#3b3b3b"/><path d="M52.23,521.43l34.83,34.83,10-10-9.91-9.91a8,8,0,0,1-10.46-10.46L62.25,511.41Z" style="fill:#3b3b3b"/><circle cx="84.1" cy="528.95" r="6" style="fill:#3b3b3b"/><polygon points="41.97 508.42 40.9 516.43 47.9 512.41 55.19 515.9 53.52 507.99 59.09 502.14 51.06 501.28 47.22 494.18 43.92 501.55 35.98 503 41.97 508.42" style="fill:#3b3b3b"/><path d="M2.92,480.48l1.86-15.31c.17-2.16.54-3.53,1.11-4.1,1.07-1.07,2.21-1,3.41.2l4.31,4.21q2.89,2.79,5.67,2.25c1.62-.39,3.66-1.82,6.14-4.3l14.7-14.7L34.9,443.5,24.46,453.94a18.67,18.67,0,0,1-3.1,2.72,2,2,0,0,1-2.59-.48l-5-5a6.7,6.7,0,0,0-2.67-1.87c-1.19-.25-2.61.28-4.26,1.57q2.7-12.47,3.83-15.35L6.11,431,0,437.08v51.09a14.76,14.76,0,0,0,1.76-2.62A18.78,18.78,0,0,0,2.92,480.48Z" style="fill:#3b3b3b"/><polygon points="0 428.68 0 430.47 0.9 429.57 0 428.68" style="fill:#3b3b3b"/><polygon points="756.88 280.97 749.7 288.15 751.24 289.68 745.37 295.55 749.98 300.16 755.85 294.29 757.69 296.13 764.87 288.96 763.02 287.11 771 279.14 771 269.92 758.41 282.5 756.88 280.97" style="fill:#3b3b3b"/><path d="M706,387.17l-17.06-17.06q-10.63-10.64-21-.27l-12.85,12.84q-5.73,5.73-2.41,13.33l-5.46-5.46-8.77,8.77,34.8,34.81,8.77-8.77L654.25,397.6l22.17-22.17L696,395q4.85,4.83,8,5c2.17.05,4.74-1.42,7.74-4.42l4.69-4.69-7-7Z" style="fill:#3b3b3b"/><path d="M735,320.6q-5-5-8.7-5.38c-2.26-.23-4.51.78-6.77,3L695.2,342.56q-9,9-.13,17.95l17.4,17.41c2.94,2.94,5.71,4.46,8.28,4.55s5.48-1.47,8.43-4.42l23.68-23.68,1.07-14.75-29.86,29.87-8.5-8.49,29.9-29.9Zm-23.34,36.46-8.43-8.42,22.24-22.24,8.42,8.43Z" style="fill:#3b3b3b"/><path d="M759.37,307.05a8,8,0,0,1,10.44,10.44l1.19,1.19V305.43l-5-5,5-5V285.05l-16.82,16.81Z" style="fill:#3b3b3b"/><path d="M756.76,320.1a8,8,0,0,1-1.73-8.73l-14.47-14.46-10,10,34.83,34.83,5.62-5.62v-8.79l-5.51-5.51A8,8,0,0,1,756.76,320.1Z" style="fill:#3b3b3b"/><path d="M766.66,318.69a6,6,0,1,0-8.49,0A6,6,0,0,0,766.66,318.69Z" style="fill:#3b3b3b"/><polygon points="729.38 286.77 725.54 279.67 722.24 287.04 714.3 288.5 720.29 293.92 719.22 301.92 726.22 297.9 733.5 301.39 731.84 293.49 737.41 287.64 729.38 286.77" style="fill:#3b3b3b"/><polygon points="595.81 300.16 601.68 294.29 603.53 296.13 610.7 288.96 608.86 287.11 628.99 266.99 630.83 268.83 638.06 261.61 636.21 259.76 641.63 254.34 637.02 249.73 631.6 255.15 629.91 253.46 622.69 260.69 624.38 262.38 604.25 282.5 602.72 280.97 595.54 288.15 597.08 289.68 591.2 295.55 595.81 300.16" style="fill:#3b3b3b"/><path d="M643.19,258.7l-11.9,11.9L621.91,280l20.43,20.43c.77.78.67,1.65-.3,2.62l-.75.76,3.94,3.94,2.21-2.21q7-7,1.68-12.27l-1.65-1.65,7.28-7.28,1.84,1.84c.5.5.21,1.29-.86,2.36l-1.8,1.8,4.2,4.21,4.22-4.22q6.23-6.21,2.43-10Zm-9.7,18.92,7.28-7.28,2.72,2.73-7.27,7.27Zm10,10-2.77-2.76,7.28-7.28,2.76,2.76Z" style="fill:#3b3b3b"/><path d="M702.78,239.43a18.58,18.58,0,0,1-3.1,2.72,2,2,0,0,1-2.59-.48l-5-5a6.86,6.86,0,0,0-2.66-1.87q-1.78-.36-4.26,1.57,2.7-12.45,3.83-15.35l-4.57-4.57-35.29,35.29,5.11,5.1,22.94-22.93-4,29.9a26,26,0,0,1-1,4.71,10.52,10.52,0,0,1-2.5,3.72l-2.21,2.21,5.19,5.19,2.56-2.56a26.29,26.29,0,0,0,4.89-6,18.78,18.78,0,0,0,1.16-5.07l1.86-15.3q.25-3.25,1.11-4.11,1.6-1.6,3.41.2l4.31,4.21q2.9,2.79,5.67,2.25,2.42-.58,6.14-4.3l14.7-14.7L713.22,229Z" style="fill:#3b3b3b"/><rect x="639.9" y="223.65" width="42.87" height="7.71" transform="translate(32.83 534.27) rotate(-45)" style="fill:#3b3b3b"/><path d="M513.76,369.84l-12.84,12.84q-5.73,5.73-2.42,13.33l-5.45-5.46-8.77,8.77,34.8,34.81,8.77-8.77L500.09,397.6l22.17-22.17L541.8,395q4.83,4.83,8,5t7.73-4.42l4.7-4.69-7-7-3.39,3.38-17-17.06Q524.13,359.48,513.76,369.84Z" style="fill:#3b3b3b"/><path d="M540.9,360.51l17.4,17.41q4.43,4.41,8.29,4.55t8.42-4.42l23.69-23.68,1.07-14.75L569.9,369.49,561.41,361l29.9-29.9-10.49-10.5q-5-5-8.71-5.38c-2.25-.23-4.51.78-6.76,3L541,342.56Q532,351.6,540.9,360.51Zm30.39-34.11,8.42,8.43-22.23,22.23-8.43-8.42Z" style="fill:#3b3b3b"/><path d="M641.2,304.9l-22.11-22.11L600,301.86l5.19,5.19a8,8,0,0,1,10.44,10.44l9.91,9.91,14.25-14.25Q644.64,308.34,641.2,304.9Zm-29.33-4.44,5.82-5.82,5.07,5.07-5.82,5.82Zm19.23,10.8-4.21,4.22L621.36,310l5.82-5.82,4.49,4.48C632.36,309.31,632.17,310.19,631.1,311.26Z" style="fill:#3b3b3b"/><path d="M576.39,306.92l34.83,34.83,10-10-9.9-9.91a8,8,0,0,1-10.46-10.46L586.4,296.91Z" style="fill:#3b3b3b"/><circle cx="608.25" cy="314.45" r="6" style="fill:#3b3b3b"/><polygon points="575.22 286.77 571.38 279.67 568.08 287.04 560.13 288.5 566.12 293.92 565.05 301.92 572.06 297.9 579.34 301.39 577.68 293.49 583.25 287.64 575.22 286.77" style="fill:#3b3b3b"/><polygon points="441.65 300.16 447.52 294.29 449.36 296.13 456.54 288.96 454.7 287.11 474.82 266.99 476.67 268.83 483.89 261.61 482.05 259.76 487.47 254.34 482.86 249.73 477.44 255.15 475.75 253.46 468.52 260.69 470.21 262.38 450.09 282.5 448.55 280.97 441.38 288.15 442.91 289.68 437.04 295.55 441.65 300.16" style="fill:#3b3b3b"/><path d="M489,258.7l-11.89,11.9L467.74,280l20.43,20.43c.78.78.68,1.65-.29,2.62l-.75.76,3.94,3.94,2.21-2.21q7-7,1.68-12.27l-1.65-1.65,7.28-7.28,1.84,1.84c.5.5.21,1.29-.86,2.36l-1.81,1.8,4.21,4.21,4.22-4.22q6.21-6.21,2.43-10Zm-9.69,18.92,7.27-7.28,2.73,2.73-7.28,7.27Zm10,10-2.76-2.76,7.27-7.28,2.77,2.76Z" style="fill:#3b3b3b"/><path d="M500.09,256.85,523,233.92l-4,29.9a25.34,25.34,0,0,1-1,4.71,10.66,10.66,0,0,1-2.5,3.72l-2.21,2.21,5.19,5.19,2.56-2.56a26.57,26.57,0,0,0,4.89-6,18.87,18.87,0,0,0,1.15-5.07l1.86-15.3c.18-2.17.55-3.54,1.12-4.11,1.07-1.07,2.2-1,3.41.2l4.31,4.21c1.93,1.86,3.81,2.61,5.66,2.25q2.43-.58,6.14-4.3l14.71-14.7L559.06,229l-10.44,10.43a18.1,18.1,0,0,1-3.11,2.72,2,2,0,0,1-2.59-.48l-5-5a6.81,6.81,0,0,0-2.67-1.87q-1.77-.36-4.25,1.57,2.7-12.45,3.82-15.35l-4.57-4.57L495,251.75Z" style="fill:#3b3b3b"/><rect x="485.74" y="223.65" width="42.87" height="7.71" transform="translate(-12.32 425.26) rotate(-45)" style="fill:#3b3b3b"/><path d="M359.6,369.84l-12.84,12.84Q341,388.41,344.34,396l-5.45-5.46-8.77,8.77,34.8,34.81,8.77-8.77L345.93,397.6l22.16-22.17L387.64,395q4.83,4.83,8,5t7.73-4.42l4.7-4.69-7.05-7-3.38,3.38-17.06-17.06Q370,359.48,359.6,369.84Z" style="fill:#3b3b3b"/><path d="M386.74,360.51l17.4,17.41q4.42,4.41,8.29,4.55t8.42-4.42l23.69-23.68,1.06-14.75-29.86,29.87L407.25,361l29.9-29.9-10.5-10.5q-5-5-8.7-5.38-3.37-.35-6.77,3l-24.3,24.31Q377.84,351.6,386.74,360.51Zm30.38-34.11,8.43,8.43-22.24,22.23-8.42-8.42Z" style="fill:#3b3b3b"/><path d="M471.4,327.4l14.25-14.25q4.82-4.81,1.39-8.25l-22.11-22.11-19.07,19.07,5.18,5.19a8,8,0,0,1,10.45,10.44Zm6.1-18.79c.7.7.51,1.58-.56,2.65l-4.22,4.22L467.19,310l5.83-5.82Zm-19.79-8.15,5.82-5.82,5.07,5.07-5.82,5.82Z" style="fill:#3b3b3b"/><path d="M422.22,306.92l34.83,34.83,10-10-9.91-9.91a8,8,0,0,1-10.46-10.46l-14.46-14.46Z" style="fill:#3b3b3b"/><circle cx="454.09" cy="314.45" r="6" style="fill:#3b3b3b"/><polygon points="421.06 286.77 417.22 279.67 413.91 287.04 405.97 288.5 411.96 293.92 410.89 301.92 417.89 297.9 425.18 301.39 423.52 293.49 429.09 287.64 421.06 286.77" style="fill:#3b3b3b"/><polygon points="287.49 300.16 293.36 294.29 295.2 296.13 302.38 288.96 300.53 287.11 320.66 266.99 322.5 268.83 329.73 261.61 327.89 259.76 333.31 254.34 328.7 249.73 323.28 255.15 321.59 253.46 314.36 260.69 316.05 262.38 295.93 282.5 294.39 280.97 287.21 288.15 288.75 289.68 282.88 295.55 287.49 300.16" style="fill:#3b3b3b"/><path d="M334.86,258.7,323,270.6,313.58,280,334,300.41c.78.78.68,1.65-.29,2.62l-.76.76,4,3.94,2.21-2.21q7-7,1.68-12.27l-1.66-1.65,7.28-7.28,1.84,1.84c.5.5.22,1.29-.85,2.36l-1.81,1.8,4.21,4.21,4.21-4.22q6.23-6.21,2.43-10Zm-9.7,18.92,7.28-7.28,2.73,2.73-7.28,7.27Zm10,10-2.77-2.76,7.28-7.28,2.77,2.76Z" style="fill:#3b3b3b"/><path d="M345.93,256.85l22.93-22.93-4,29.9a26,26,0,0,1-1,4.71,10.49,10.49,0,0,1-2.49,3.72l-2.21,2.21,5.18,5.19,2.56-2.56a26.68,26.68,0,0,0,4.9-6,19.28,19.28,0,0,0,1.15-5.07l1.86-15.3q.25-3.25,1.11-4.11,1.61-1.6,3.41.2l4.32,4.21q2.88,2.79,5.66,2.25c1.62-.39,3.66-1.82,6.14-4.3l14.71-14.7L404.89,229l-10.44,10.43a18.18,18.18,0,0,1-3.1,2.72,2,2,0,0,1-2.59-.48l-5-5a6.81,6.81,0,0,0-2.67-1.87c-1.19-.24-2.6.28-4.26,1.57q2.71-12.45,3.83-15.35l-4.57-4.57-35.28,35.29Z" style="fill:#3b3b3b"/><rect x="331.57" y="223.65" width="42.87" height="7.71" transform="translate(-57.47 316.25) rotate(-45)" style="fill:#3b3b3b"/><path d="M205.44,369.84l-12.85,12.84q-5.73,5.73-2.41,13.33l-5.46-5.46L176,399.32l34.8,34.81,8.77-8.77L191.77,397.6l22.16-22.17L233.47,395q4.84,4.83,8,5c2.17.05,4.74-1.42,7.74-4.42l4.69-4.69-7-7-3.38,3.38-17.06-17.06Q215.8,359.48,205.44,369.84Z" style="fill:#3b3b3b"/><path d="M232.58,360.51,250,377.92c2.94,2.94,5.71,4.46,8.28,4.55s5.48-1.47,8.43-4.42l23.68-23.68,1.07-14.75-29.86,29.87-8.5-8.49L283,331.1l-10.49-10.5q-5-5-8.7-5.38c-2.26-.23-4.51.78-6.77,3l-24.31,24.31Q223.67,351.6,232.58,360.51ZM263,326.4l8.42,8.43-22.23,22.23-8.43-8.42Z" style="fill:#3b3b3b"/><path d="M317.23,327.4l14.26-14.25q4.81-4.81,1.38-8.25l-22.1-22.11-19.08,19.07,5.19,5.19a8,8,0,0,1,10.44,10.44Zm6.11-18.79c.69.7.51,1.58-.56,2.65l-4.22,4.22L313,310l5.82-5.82Zm-19.8-8.15,5.83-5.82,5.07,5.07-5.83,5.82Z" style="fill:#3b3b3b"/><path d="M268.06,306.92l34.83,34.83,10-10-9.9-9.91a8,8,0,0,1-10.46-10.46l-14.47-14.46Z" style="fill:#3b3b3b"/><circle cx="299.93" cy="314.45" r="6" style="fill:#3b3b3b"/><polygon points="266.89 286.77 263.05 279.67 259.75 287.04 251.81 288.5 257.8 293.92 256.73 301.92 263.73 297.9 271.01 301.39 269.35 293.49 274.92 287.64 266.89 286.77" style="fill:#3b3b3b"/><polygon points="133.32 300.16 139.19 294.29 141.04 296.13 148.21 288.96 146.37 287.11 166.5 266.99 168.34 268.83 175.57 261.61 173.72 259.76 179.14 254.34 174.53 249.73 169.12 255.15 167.43 253.46 160.2 260.69 161.89 262.38 141.76 282.5 140.23 280.97 133.05 288.15 134.59 289.68 128.71 295.55 133.32 300.16" style="fill:#3b3b3b"/><path d="M180.7,258.7l-11.9,11.9L159.42,280l20.43,20.43c.77.78.67,1.65-.3,2.62l-.75.76,3.94,3.94,2.21-2.21q7-7,1.68-12.27L185,291.6l7.28-7.28,1.84,1.84c.5.5.21,1.29-.86,2.36l-1.8,1.8,4.2,4.21,4.22-4.22q6.22-6.21,2.43-10ZM171,277.62l7.28-7.28,2.72,2.73-7.27,7.27Zm10,10-2.77-2.76,7.28-7.28,2.76,2.76Z" style="fill:#3b3b3b"/><path d="M191.76,256.85l22.94-22.93-4,29.9a26,26,0,0,1-1,4.71,10.52,10.52,0,0,1-2.5,3.72L205,274.46l5.19,5.19,2.56-2.56a26.29,26.29,0,0,0,4.89-6,18.78,18.78,0,0,0,1.16-5.07l1.86-15.3q.25-3.25,1.11-4.11,1.6-1.6,3.41.2l4.31,4.21q2.9,2.79,5.67,2.25,2.41-.58,6.14-4.3l14.7-14.7L250.73,229l-10.44,10.43a18.58,18.58,0,0,1-3.1,2.72,2,2,0,0,1-2.59-.48l-5-5a6.86,6.86,0,0,0-2.66-1.87q-1.78-.36-4.26,1.57,2.7-12.45,3.83-15.35l-4.57-4.57-35.29,35.29Z" style="fill:#3b3b3b"/><rect x="177.41" y="223.65" width="42.87" height="7.71" transform="translate(-102.63 207.24) rotate(-45)" style="fill:#3b3b3b"/><path d="M56.59,434.13l8.77-8.77L37.6,397.6l22.17-22.17L79.31,395q4.83,4.83,8,5t7.73-4.42l4.7-4.69-7-7-3.39,3.38-17-17.06q-10.63-10.64-21-.27L38.43,382.68Q32.7,388.41,36,396l-5.45-5.46-8.77,8.77Z" style="fill:#3b3b3b"/><path d="M78.41,360.51l17.4,17.41q4.43,4.41,8.29,4.55t8.42-4.42l23.69-23.68,1.07-14.75-29.87,29.87L98.92,361l29.9-29.9-10.49-10.5q-5-5-8.71-5.38c-2.25-.23-4.51.78-6.76,3L78.55,342.56Q69.51,351.6,78.41,360.51ZM108.8,326.4l8.42,8.43L95,357.06l-8.43-8.42Z" style="fill:#3b3b3b"/><path d="M163.07,327.4l14.25-14.25q4.83-4.81,1.39-8.25L156.6,282.79l-19.07,19.07,5.19,5.19a8,8,0,0,1,10.44,10.44Zm6.11-18.79c.69.7.5,1.58-.57,2.65l-4.21,4.22L158.87,310l5.82-5.82Zm-19.8-8.15,5.82-5.82,5.07,5.07-5.82,5.82Z" style="fill:#3b3b3b"/><path d="M113.9,306.92l34.83,34.83,10-10-9.9-9.91a8,8,0,0,1-10.46-10.46l-14.47-14.46Z" style="fill:#3b3b3b"/><circle cx="145.76" cy="314.45" r="6" style="fill:#3b3b3b"/><polygon points="112.73 286.77 108.89 279.67 105.59 287.04 97.64 288.5 103.63 293.92 102.56 301.92 109.57 297.9 116.85 301.39 115.19 293.49 120.76 287.64 112.73 286.77" style="fill:#3b3b3b"/><polygon points="14.18 268.83 21.4 261.61 19.56 259.76 24.98 254.34 20.37 249.73 14.95 255.15 13.26 253.46 6.04 260.69 7.72 262.38 0 270.1 0 279.32 12.33 266.99 14.18 268.83" style="fill:#3b3b3b"/><path d="M24.64,303.79l3.94,3.94,2.21-2.21q7-7,1.68-12.27l-1.65-1.65,7.28-7.28,1.84,1.84c.5.5.21,1.29-.86,2.36l-1.81,1.8,4.21,4.21,4.22-4.22q6.21-6.21,2.43-10l-21.6-21.6L14.64,270.6,5.25,280l20.43,20.43c.78.78.68,1.65-.29,2.62Zm-7.8-26.17,7.27-7.28,2.73,2.73-7.28,7.27Zm7.22,7.22,7.27-7.28,2.77,2.76-7.28,7.28Z" style="fill:#3b3b3b"/><path d="M37.6,256.85l22.93-22.93-4,29.9a25.34,25.34,0,0,1-1,4.71,10.66,10.66,0,0,1-2.5,3.72l-2.21,2.21L56,279.65l2.56-2.56a26.57,26.57,0,0,0,4.89-6A18.87,18.87,0,0,0,64.58,266l1.86-15.3c.18-2.17.55-3.54,1.12-4.11,1.07-1.07,2.2-1,3.41.2L75.28,251q2.89,2.79,5.66,2.25,2.43-.58,6.14-4.3l14.71-14.7L96.57,229,86.13,239.43A18.1,18.1,0,0,1,83,242.15a2,2,0,0,1-2.59-.48l-5-5a6.81,6.81,0,0,0-2.67-1.87q-1.77-.36-4.25,1.57,2.7-12.45,3.82-15.35l-4.57-4.57L32.49,251.75Z" style="fill:#3b3b3b"/><rect x="23.25" y="223.65" width="42.87" height="7.71" transform="translate(-147.78 98.23) rotate(-45)" style="fill:#3b3b3b"/><path d="M23.16,313.15q4.82-4.81,1.39-8.25L2.44,282.79,0,285.23v10.45l1-1,5.07,5.07L.29,305.53,0,305.25v13.24l8.91,8.91Zm-12.63-9L15,308.61c.7.7.51,1.58-.56,2.65l-4.22,4.22L4.7,310Z" style="fill:#3b3b3b"/><polygon points="0 327.16 0 336.32 4.58 331.74 0 327.16" style="fill:#3b3b3b"/><path d="M750.58,155.61q-10.62-10.63-21-.28l-12.84,12.84q-5.73,5.73-2.42,13.33l-5.45-5.45-8.77,8.77,34.8,34.8,8.77-8.77-27.76-27.76,22.17-22.17,19.54,19.54c3.22,3.23,5.89,4.88,8,5,1.57,0,3.36-.75,5.36-2.31V169.3l-3.36,3.36Z" style="fill:#3b3b3b"/><path d="M756.73,146,771,160.28v-20l-6.12-6.12L771,128V113.92l-14.13,14.13Q747.83,137.1,756.73,146Z" style="fill:#3b3b3b"/><polygon points="657.48 85.66 663.35 79.78 665.19 81.63 672.37 74.45 670.53 72.61 690.65 52.48 692.5 54.33 699.72 47.1 697.88 45.26 703.3 39.83 698.69 35.23 693.27 40.65 691.58 38.96 684.35 46.18 686.04 47.87 665.92 68 664.38 66.46 657.2 73.64 658.74 75.17 652.87 81.05 657.48 85.66" style="fill:#3b3b3b"/><path d="M683.57,65.48,704,85.91c.78.77.68,1.65-.29,2.62l-.75.75,3.94,3.94L709.11,91q7-7,1.68-12.27l-1.65-1.65,7.27-7.28,1.84,1.84c.51.5.22,1.29-.85,2.36l-1.81,1.81L719.8,80,724,75.81q6.22-6.23,2.43-10L704.85,44.2,693,56.09Zm28.85.34-7.28,7.27-2.76-2.76,7.27-7.28Zm-10-10,2.73,2.73-7.28,7.28-2.72-2.73Z" style="fill:#3b3b3b"/><path d="M764.44,24.93a19.19,19.19,0,0,1-3.1,2.72,2,2,0,0,1-2.59-.49l-5-5a6.65,6.65,0,0,0-2.67-1.86q-1.77-.37-4.25,1.56,2.7-12.45,3.82-15.34L746.09,2,710.81,37.24l5.11,5.11,22.93-22.94-4,29.91a24.05,24.05,0,0,1-1,4.7,10.52,10.52,0,0,1-2.49,3.73L729.11,60l5.18,5.18,2.56-2.56a26.46,26.46,0,0,0,4.9-6,18.87,18.87,0,0,0,1.15-5.07l1.86-15.3c.17-2.17.55-3.54,1.11-4.11q1.61-1.6,3.42.2l4.31,4.22c1.93,1.86,3.81,2.61,5.66,2.24q2.43-.59,6.14-4.29l5.6-5.6V18.37Z" style="fill:#3b3b3b"/><polygon points="740.88 0.56 740.32 0 730.54 0 705.12 25.42 710.57 30.88 740.88 0.56" style="fill:#3b3b3b"/><path d="M545.94,184.82l34.81,34.8,8.77-8.77-27.76-27.76,22.16-22.17,19.55,19.54c3.22,3.23,5.89,4.88,8,5s4.74-1.43,7.73-4.42l4.7-4.7-7-7-3.38,3.38-17.06-17q-10.63-10.63-21-.28l-12.84,12.84q-5.75,5.73-2.42,13.33l-5.46-5.45Z" style="fill:#3b3b3b"/><path d="M642.48,106.09q-5-5-8.7-5.38c-2.26-.23-4.51.78-6.77,3l-24.3,24.3q-9.06,9-.14,18l17.4,17.4c2.95,3,5.71,4.46,8.29,4.56s5.47-1.48,8.42-4.42l23.69-23.69,1.06-14.75L631.57,155l-8.49-8.49,29.9-29.9Zm-23.34,36.46-8.42-8.42L633,111.89l8.43,8.43Z" style="fill:#3b3b3b"/><path d="M702.86,90.39l-22.1-22.11L661.69,87.35l5.18,5.19A8,8,0,0,1,677.32,103l9.91,9.91,14.25-14.26Q706.3,93.83,702.86,90.39ZM673.54,86l5.82-5.83,5.07,5.07L678.61,91Zm19.23,10.8L688.55,101,683,95.44l5.82-5.82,4.49,4.49C694,94.8,693.84,95.69,692.77,96.76Z" style="fill:#3b3b3b"/><path d="M672.88,127.24l10-10-9.91-9.9a8,8,0,0,1-10.46-10.46L648.07,82.4l-10,10Z" style="fill:#3b3b3b"/><circle cx="669.92" cy="99.94" r="6" style="fill:#3b3b3b"/><polygon points="627.79 79.41 626.72 87.41 633.72 83.39 641.01 86.88 639.35 78.98 644.91 73.13 636.88 72.27 633.04 65.16 629.74 72.53 621.8 73.99 627.79 79.41" style="fill:#3b3b3b"/><polygon points="503.31 85.66 509.19 79.78 511.03 81.63 518.21 74.45 516.36 72.61 536.49 52.48 538.33 54.33 545.56 47.1 543.72 45.26 549.13 39.83 544.53 35.23 539.11 40.65 537.42 38.96 530.19 46.18 531.88 47.87 511.75 68 510.22 66.46 503.04 73.64 504.58 75.17 498.7 81.05 503.31 85.66" style="fill:#3b3b3b"/><path d="M529.41,65.48l20.43,20.43c.77.77.68,1.65-.29,2.62l-.76.75,4,3.94,2.2-2.21q7-7,1.69-12.27L555,77.09l7.28-7.28,1.84,1.84c.5.5.22,1.29-.85,2.36l-1.81,1.81,4.21,4.2,4.21-4.21q6.23-6.23,2.43-10L550.69,44.2l-11.9,11.89Zm28.84.34L551,73.09l-2.77-2.76,7.28-7.28Zm-10-10L551,58.56l-7.28,7.28L541,63.11Z" style="fill:#3b3b3b"/><path d="M561.75,42.35l22.94-22.94-4,29.91a25.65,25.65,0,0,1-1,4.7,10.42,10.42,0,0,1-2.5,3.73L575,60l5.18,5.18,2.56-2.56a26.08,26.08,0,0,0,4.89-6,18.78,18.78,0,0,0,1.16-5.07l1.86-15.3q.25-3.25,1.11-4.11,1.6-1.6,3.41.2l4.32,4.22q2.88,2.79,5.66,2.24c1.62-.39,3.66-1.82,6.14-4.29l14.7-14.71-5.22-5.22L610.28,24.93a19.19,19.19,0,0,1-3.1,2.72,2,2,0,0,1-2.59-.49l-5-5a6.65,6.65,0,0,0-2.67-1.86q-1.78-.37-4.26,1.56,2.7-12.45,3.83-15.34L591.93,2,556.65,37.24Z" style="fill:#3b3b3b"/><polygon points="586.72 0.56 586.16 0 576.38 0 550.96 25.42 556.4 30.88 586.72 0.56" style="fill:#3b3b3b"/><path d="M391.78,184.82l34.8,34.8,8.77-8.77-27.76-27.76,22.17-22.17,19.54,19.54c3.22,3.23,5.89,4.88,8,5s4.74-1.43,7.74-4.42l4.69-4.7-7-7-3.39,3.38-17.05-17q-10.63-10.63-21-.28l-12.85,12.84q-5.73,5.73-2.41,13.33l-5.46-5.45Z" style="fill:#3b3b3b"/><path d="M488.32,106.09q-5-5-8.7-5.38-3.39-.34-6.77,3l-24.31,24.3q-9,9-.14,18l17.41,17.4c2.94,3,5.7,4.46,8.28,4.56s5.48-1.48,8.43-4.42l23.68-23.69,1.07-14.75L477.41,155l-8.5-8.49,29.9-29.9ZM465,142.55l-8.43-8.42,22.24-22.24,8.42,8.43Z" style="fill:#3b3b3b"/><path d="M533.06,112.9l14.26-14.26q4.81-4.81,1.38-8.25L526.59,68.28,507.52,87.35l5.19,5.19A8,8,0,0,1,523.15,103Zm6.11-18.79c.69.69.51,1.58-.56,2.65L534.39,101l-5.53-5.53,5.82-5.82ZM519.37,86l5.83-5.83,5.06,5.07L524.44,91Z" style="fill:#3b3b3b"/><path d="M518.72,127.24l10-10-9.9-9.9a8,8,0,0,1-10.46-10.46L493.9,82.4l-10,10Z" style="fill:#3b3b3b"/><circle cx="515.75" cy="99.94" r="6" style="fill:#3b3b3b"/><polygon points="473.62 79.41 472.56 87.41 479.56 83.39 486.84 86.88 485.18 78.98 490.75 73.13 482.72 72.27 478.88 65.16 475.58 72.53 467.64 73.99 473.62 79.41" style="fill:#3b3b3b"/><polygon points="349.15 85.66 355.02 79.78 356.87 81.63 364.04 74.45 362.2 72.61 382.32 52.48 384.17 54.33 391.39 47.1 389.55 45.26 394.97 39.83 390.36 35.23 384.94 40.65 383.25 38.96 376.03 46.18 377.72 47.87 357.59 68 356.06 66.46 348.88 73.64 350.41 75.17 344.54 81.05 349.15 85.66" style="fill:#3b3b3b"/><path d="M375.24,65.48l20.43,20.43c.78.77.68,1.65-.29,2.62l-.75.75,3.94,3.94L400.78,91q7-7,1.68-12.27l-1.65-1.65,7.28-7.28,1.84,1.84c.5.5.21,1.29-.86,2.36l-1.8,1.81,4.2,4.2,4.22-4.21q6.22-6.23,2.43-10L396.52,44.2,384.63,56.09Zm28.85.34-7.28,7.27-2.76-2.76,7.28-7.28Zm-10-10,2.72,2.73-7.27,7.28-2.73-2.73Z" style="fill:#3b3b3b"/><path d="M407.59,42.35l22.94-22.94-4,29.91a25.65,25.65,0,0,1-1,4.7,10.69,10.69,0,0,1-2.5,3.73L420.78,60,426,65.14l2.56-2.56a26.08,26.08,0,0,0,4.89-6,18.87,18.87,0,0,0,1.15-5.07l1.87-15.3q.26-3.25,1.11-4.11,1.6-1.6,3.41.2l4.31,4.22q2.89,2.79,5.66,2.24,2.43-.59,6.15-4.29l14.7-14.71-5.22-5.22L456.12,24.93a19.65,19.65,0,0,1-3.1,2.72,2,2,0,0,1-2.59-.49l-5-5a6.7,6.7,0,0,0-2.66-1.86q-1.78-.37-4.26,1.56,2.7-12.45,3.83-15.34L437.77,2,402.48,37.24Z" style="fill:#3b3b3b"/><polygon points="432.56 0.56 431.99 0 422.22 0 396.79 25.42 402.24 30.88 432.56 0.56" style="fill:#3b3b3b"/><path d="M237.62,184.82l34.8,34.8,8.77-8.77-27.76-27.76,22.17-22.17,19.54,19.54c3.22,3.23,5.89,4.88,8,5s4.74-1.43,7.73-4.42l4.7-4.7-7-7-3.39,3.38-17-17q-10.64-10.63-21-.28l-12.84,12.84q-5.73,5.73-2.42,13.33l-5.45-5.45Z" style="fill:#3b3b3b"/><path d="M334.15,106.09q-5-5-8.7-5.38c-2.25-.23-4.51.78-6.76,3l-24.31,24.3q-9,9-.14,18l17.4,17.4c2.95,3,5.71,4.46,8.29,4.56s5.48-1.48,8.42-4.42L352,139.86l1.07-14.75L323.24,155l-8.49-8.49,29.9-29.9Zm-23.34,36.46-8.42-8.42,22.23-22.24,8.43,8.43Z" style="fill:#3b3b3b"/><path d="M378.9,112.9l14.25-14.26q4.82-4.81,1.39-8.25L372.43,68.28,353.36,87.35l5.19,5.19A8,8,0,0,1,369,103ZM385,94.11c.7.69.51,1.58-.56,2.65L380.23,101l-5.53-5.53,5.82-5.82ZM365.21,86,371,80.13l5.07,5.07L370.28,91Z" style="fill:#3b3b3b"/><path d="M364.56,127.24l10-10-9.91-9.9A8,8,0,0,1,354.2,96.87L339.74,82.4l-10,10Z" style="fill:#3b3b3b"/><circle cx="361.59" cy="99.94" r="6" style="fill:#3b3b3b"/><polygon points="319.46 79.41 318.39 87.41 325.4 83.39 332.68 86.88 331.02 78.98 336.59 73.13 328.56 72.27 324.72 65.16 321.42 72.53 313.47 73.99 319.46 79.41" style="fill:#3b3b3b"/><polygon points="194.99 85.66 200.86 79.78 202.7 81.63 209.88 74.45 208.04 72.61 228.16 52.48 230 54.33 237.23 47.1 235.39 45.26 240.81 39.83 236.2 35.23 230.78 40.65 229.09 38.96 221.86 46.18 223.55 47.87 203.43 68 201.89 66.46 194.72 73.64 196.25 75.17 190.38 81.05 194.99 85.66" style="fill:#3b3b3b"/><path d="M221.08,65.48l20.43,20.43c.78.77.68,1.65-.29,2.62l-.75.75,3.94,3.94L246.62,91q7-7,1.68-12.27l-1.65-1.65,7.27-7.28,1.84,1.84c.51.5.22,1.29-.85,2.36l-1.81,1.81,4.21,4.2,4.21-4.21q6.23-6.23,2.43-10L242.36,44.2,230.47,56.09Zm28.85.34-7.28,7.27-2.76-2.76,7.27-7.28Zm-10-10,2.73,2.73-7.28,7.28-2.72-2.73Z" style="fill:#3b3b3b"/><path d="M253.43,42.35l22.93-22.94-4,29.91a25,25,0,0,1-1,4.7,10.69,10.69,0,0,1-2.5,3.73L266.62,60l5.18,5.18,2.56-2.56a26.46,26.46,0,0,0,4.9-6,18.87,18.87,0,0,0,1.15-5.07l1.86-15.3c.17-2.17.55-3.54,1.11-4.11q1.61-1.6,3.42.2l4.31,4.22c1.93,1.86,3.81,2.61,5.66,2.24q2.43-.59,6.14-4.29l14.71-14.71-5.23-5.22L302,24.93a19.55,19.55,0,0,1-3.11,2.72,2,2,0,0,1-2.59-.49l-5-5a6.65,6.65,0,0,0-2.67-1.86q-1.77-.37-4.25,1.56Q287,9.42,288.17,6.53L283.6,2,248.32,37.24Z" style="fill:#3b3b3b"/><polygon points="278.39 0.56 277.83 0 268.05 0 242.63 25.42 248.08 30.88 278.39 0.56" style="fill:#3b3b3b"/><path d="M83.45,184.82l34.81,34.8,8.77-8.77L99.27,183.09l22.16-22.17L141,180.46c3.22,3.23,5.89,4.88,8,5s4.74-1.43,7.73-4.42l4.7-4.7-7-7L151,172.66l-17.06-17q-10.64-10.63-21-.28L100.1,168.17q-5.75,5.73-2.42,13.33l-5.46-5.45Z" style="fill:#3b3b3b"/><path d="M180,106.09q-5-5-8.7-5.38c-2.26-.23-4.51.78-6.77,3l-24.3,24.3q-9.06,9-.14,18l17.4,17.4c3,3,5.71,4.46,8.29,4.56s5.47-1.48,8.42-4.42l23.69-23.69,1.06-14.75L169.08,155l-8.49-8.49,29.9-29.9Zm-23.34,36.46-8.42-8.42,22.23-22.24,8.43,8.43Z" style="fill:#3b3b3b"/><path d="M224.74,112.9,239,98.64q4.81-4.81,1.39-8.25L218.27,68.28,199.2,87.35l5.18,5.19A8,8,0,0,1,214.83,103Zm6.1-18.79c.7.69.51,1.58-.56,2.65L226.06,101l-5.53-5.53,5.82-5.82ZM211.05,86l5.82-5.83,5.07,5.07L216.12,91Z" style="fill:#3b3b3b"/><path d="M210.39,127.24l10-10-9.91-9.9A8,8,0,0,1,200,96.87L185.58,82.4l-10,10Z" style="fill:#3b3b3b"/><path d="M203.18,95.7a6,6,0,1,0,8.49,0A6,6,0,0,0,203.18,95.7Z" style="fill:#3b3b3b"/><polygon points="165.3 79.41 164.23 87.41 171.23 83.39 178.52 86.88 176.86 78.98 182.43 73.13 174.4 72.27 170.56 65.16 167.25 72.53 159.31 73.99 165.3 79.41" style="fill:#3b3b3b"/><polygon points="40.82 85.66 46.7 79.78 48.54 81.63 55.72 74.45 53.87 72.61 74 52.48 75.84 54.33 83.07 47.1 81.22 45.26 86.65 39.83 82.04 35.23 76.62 40.65 74.93 38.96 67.7 46.18 69.39 47.87 49.26 68 47.73 66.46 40.55 73.64 42.09 75.17 36.22 81.05 40.82 85.66" style="fill:#3b3b3b"/><path d="M66.92,65.48,87.35,85.91c.77.77.68,1.65-.29,2.62l-.76.75,4,3.94L92.46,91q7-7,1.68-12.27l-1.66-1.65,7.28-7.28,1.84,1.84c.5.5.22,1.29-.85,2.36l-1.81,1.81,4.21,4.2,4.21-4.21q6.23-6.23,2.43-10L88.2,44.2,76.3,56.09Zm28.85.34-7.28,7.27-2.77-2.76L93,63.05Zm-10-10,2.73,2.73-7.28,7.28L78.5,63.11Z" style="fill:#3b3b3b"/><path d="M99.26,42.35,122.2,19.41l-4,29.91a25.65,25.65,0,0,1-1,4.7,10.42,10.42,0,0,1-2.5,3.73L112.46,60l5.18,5.18,2.56-2.56a26.46,26.46,0,0,0,4.9-6,19.28,19.28,0,0,0,1.15-5.07l1.86-15.3q.25-3.25,1.11-4.11,1.6-1.6,3.41.2L137,36.47q2.88,2.79,5.66,2.24c1.62-.39,3.66-1.82,6.14-4.29l14.7-14.71-5.22-5.22L147.79,24.93a19.19,19.19,0,0,1-3.1,2.72,2,2,0,0,1-2.59-.49l-5-5a6.65,6.65,0,0,0-2.67-1.86q-1.78-.37-4.26,1.56Q132.88,9.42,134,6.53L129.44,2,94.16,37.24Z" style="fill:#3b3b3b"/><polygon points="124.23 0.56 123.67 0 113.89 0 88.47 25.42 93.92 30.88 124.23 0.56" style="fill:#3b3b3b"/><path d="M7.25,176.32l-7-7-.21.21v13.78A24.69,24.69,0,0,0,2.56,181Z" style="fill:#3b3b3b"/><path d="M11.6,168q4,0,8.43-4.42l23.68-23.69,1.07-14.75L14.92,155l-8.5-8.49,29.9-29.9-10.49-10.5q-5-5-8.7-5.38-3.39-.34-6.77,3L0,114.11v14.08l16.3-16.3,8.42,8.43L2.49,142.55,0,140.07v20l3.32,3.32C6.26,166.36,9,167.87,11.6,168Z" style="fill:#3b3b3b"/><path d="M70.57,112.9,84.83,98.64q4.82-4.81,1.38-8.25L64.1,68.28,45,87.35l5.19,5.19A8,8,0,0,1,60.66,103Zm6.11-18.79c.69.69.51,1.58-.56,2.65L71.9,101l-5.53-5.53,5.82-5.82ZM56.88,86l5.83-5.83,5.06,5.07L62,91Z" style="fill:#3b3b3b"/><path d="M56.23,127.24l10-10-9.9-9.9A8,8,0,0,1,45.88,96.87L31.41,82.4l-10,10Z" style="fill:#3b3b3b"/><circle cx="53.26" cy="99.94" r="6" style="fill:#3b3b3b"/><polygon points="11.13 79.41 10.07 87.41 17.07 83.39 24.35 86.88 22.69 78.98 28.26 73.13 20.23 72.27 16.39 65.16 13.09 72.53 5.15 73.99 11.13 79.41" style="fill:#3b3b3b"/><polygon points="4.07 14.49 0 18.56 0 29 9.29 19.71 4.07 14.49" style="fill:#3b3b3b"/><polygon points="647.52 0 637.3 0 642.41 5.11 647.52 0" style="fill:#3b3b3b"/><polygon points="493.36 0 483.14 0 488.25 5.11 493.36 0" style="fill:#3b3b3b"/><polygon points="339.2 0 328.98 0 334.09 5.11 339.2 0" style="fill:#3b3b3b"/><polygon points="185.03 0 174.81 0 179.92 5.11 185.03 0" style="fill:#3b3b3b"/><polygon points="30.87 0 20.65 0 25.76 5.11 30.87 0" style="fill:#3b3b3b"/></svg>