 <svg class="start-wrapper" id="start-caption" data-name="startcaption" xmlns="http://www.w3.org/2000/svg" viewBox="-20 -20 1450 100">

 <defs>
      <!-- We set the filter effect area to be really big to guarantee we see it all... -->
      <filter id="blue-glow" x="-5000%" y="-5000%" width="10000%" height="10000%">
          <feFlood result="flood" flood-color="#00baff" flood-opacity="1"></feFlood>
          <feComposite in="flood" result="mask" in2="SourceGraphic" operator="in"></feComposite>
          <feMorphology in="mask" result="dilated" operator="dilate" radius="4"></feMorphology>
          <feGaussianBlur in="dilated" result="blurred" stdDeviation="12"></feGaussianBlur>
          <feMerge>
              <feMergeNode in="blurred"></feMergeNode>
              <feMergeNode in="SourceGraphic"></feMergeNode>
          </feMerge>
      </filter>
      <filter id="pink-glow" x="-5000%" y="-5000%" width="10000%" height="10000%">
          <feFlood result="flood" flood-color="#ff2cd0" flood-opacity="1"></feFlood>
          <feComposite in="flood" result="mask" in2="SourceGraphic" operator="in"></feComposite>
          <feMorphology in="mask" result="dilated" operator="dilate" radius="4"></feMorphology>
          <feGaussianBlur in="dilated" result="blurred" stdDeviation="12"></feGaussianBlur>
          <feMerge>
              <feMergeNode in="blurred"></feMergeNode>
              <feMergeNode in="SourceGraphic"></feMergeNode>
          </feMerge>
      </filter>




<style type="text/css"><![CDATA[
      

  .start-wrapper svg path {
    fill:#bdfaff;
    filter: url(#blue-glow);
  }

  .start-wrapper svg:hover path {
    fill:#ffffff;
    filter: url(#pink-glow);
  }

}

    ]]></style>




    </defs>

  <g>
    <path d="M64.86,26.77q0,4.36-2.73,6.47t-8.74,2h-37V53.61H0V0H52.73q6.67,0,9.4,2T64.86,9.1ZM48.22,25.72V11H16V25.72Z"/>
    <path d="M134.41,53.61H118.53v-21H85.06v21H69V0h51q8,0,11.19,2.11t3.2,6.84v7.59q0,3.76-1.13,5.41-2.16,3-8.83,4.51,6.67,1.35,8.83,4.51a10.56,10.56,0,0,1,1.13,5.49ZM118.34,23.08V11H85.06V23.08Z"/>
    <path d="M196.54,11H155.18V22h41.17v9.47H155.18v11.2h41.08v11H138.55V0h58Z"/>
    <path d="M265.35,46q0,7.6-13.07,7.59H198.89V42.56h50.76V31.66H214.4q-7.52,0-11-1.88a7.18,7.18,0,0,1-3.95-6.84V8.5a6.86,6.86,0,0,1,4.23-6.62Q207.82,0,218.54,0h42V11H215.34V22.11H252q13.35,0,13.35,9.25Z"/>
    <path d="M334,46q0,7.6-13.07,7.59H267.51V42.56h50.76V31.66H283q-7.52,0-11-1.88a7.18,7.18,0,0,1-3.95-6.84V8.5a6.86,6.86,0,0,1,4.23-6.62Q276.44,0,287.15,0h42V11H284V22.11h36.66q13.35,0,13.35,9.25Z"/>
    <path d="M431.81,11H408.69V53.61H391V11H367V0h64.86Z"/>
    <path d="M503.81,53.61H487.17V30.68H452V53.61H435.47V0H452V21.13h35.15V0h16.64Z"/>
    <path d="M567.72,11H526.37V22h41.17v9.47H526.37v11.2h41.08v11H509.73V0h58Z"/>
    <path d="M667.83,46q0,7.6-13.07,7.59H601.37V42.56h50.76V31.66H616.88q-7.52,0-11-1.88a7.18,7.18,0,0,1-3.95-6.84V8.5a6.86,6.86,0,0,1,4.23-6.62Q610.3,0,621,0h42V11H617.82V22.11h36.66q13.35,0,13.35,9.25Z"/>
    <path d="M734.38,11H711.25V53.61H693.58V11H669.52V0h64.86Z"/>
    <path d="M803,53.61H786.73V30.23H751.86V53.61H735.6V9.17Q735.6,0,749.13,0h40.51Q803,0,803,9.17ZM786.73,22.78V11H751.86V22.78Z"/>
    <path d="M872.08,53.61H856.19v-21H822.73v21H806.66V0h51q8,0,11.19,2.11t3.2,6.84v7.59q0,3.76-1.13,5.41-2.16,3-8.83,4.51,6.67,1.35,8.83,4.51a10.56,10.56,0,0,1,1.13,5.49ZM856,23.08V11H822.73V23.08Z"/>
    <path d="M938.62,11H915.5V53.61H897.83V11H873.77V0h64.86Z"/>
    <path d="M1041.08,43.31q0,5.57-2.91,8t-9.68,2.33H973.59V0h55.17q6.86,0,9.59,2t2.73,6.69v8.42q0,5.49-7.52,9,4.89,1.05,6.58,3.61.94,1.51.94,5.11ZM1025,22.78V11H989.76V22.78Zm0,19.85V30.23H989.76V42.64Z"/>
    <path d="M1112.51,44.52q0,9.1-13.35,9.1h-40.61q-6.58,0-10.06-2.48a7.8,7.8,0,0,1-3.38-6.62V0h16.36V42.64h34.87V0h16.17Z"/>
    <path d="M1180.85,11h-23.12V53.61h-17.67V11H1116V0h64.86Z"/>
    <path d="M1246.92,11H1223.8V53.61h-17.67V11h-24.06V0h64.86Z"/>
    <path d="M1315.73,40.61q0,6.77-3.67,9.93t-11.28,3.08H1264.6q-14.95,0-14.95-13V13q0-6.92,3.67-10t11.28-3h36.19q7.9,0,11.47,3t3.48,10Zm-16.26,2V11H1266.1V42.64Z"/>
    <path d="M1388.86,53.61h-17l-27.63-32.56a21.11,21.11,0,0,1-2.26-3.38q-1.69-3.16-1.88-3.46l-5.92,2a58.09,58.09,0,0,1,1.79,11.2V53.61H1320.8V0h23.69l20,23.76q0,.08,4.89,7.52l6-1.58a35.46,35.46,0,0,1-1.79-10.08V0h15.23Z"/>
  </g>
</svg>